<svg version="1.1" xmlns="http://www.w3.org/2000/svg" x="0" y="0" viewBox="0 0 1280 640" style="enable-background:new 0 0 1280 640" xml:space="preserve"><style>.st0{fill:#343a40}.st3{fill:#495057}</style><path class="st0" d="M312.43 357.92V290.7h5.32l.56 10.36h.42c2.99-3.45 6.32-6.32 10.01-8.61 3.69-2.29 7.4-3.43 11.13-3.43 5.41 0 9.57 1.26 12.46 3.78 2.89 2.52 4.95 5.84 6.16 9.94 3.83-4.2 7.63-7.54 11.41-10.01 3.78-2.47 7.58-3.71 11.41-3.71 13.44 0 20.17 8.59 20.17 25.77v43.13h-6.3v-42.29c0-14-5-21.01-14.98-21.01-5.98 0-12.7 4.2-20.17 12.6v50.7h-6.16v-42.29c0-7.19-1.21-12.49-3.64-15.89-2.43-3.41-6.26-5.11-11.48-5.11-5.98 0-12.7 4.2-20.17 12.6v50.7h-6.15zM429.09 274.45c-1.49 0-2.76-.51-3.78-1.54-1.03-1.03-1.54-2.43-1.54-4.2 0-1.59.51-2.89 1.54-3.92 1.03-1.03 2.29-1.54 3.78-1.54 1.59 0 2.87.51 3.85 1.54s1.47 2.33 1.47 3.92c0 1.77-.49 3.17-1.47 4.2-.98 1.03-2.26 1.54-3.85 1.54zm-2.94 83.47V290.7h6.16v67.22h-6.16zM458.22 357.92V290.7h5.32l.56 10.36h.42c3.45-3.45 7.02-6.32 10.71-8.61 3.69-2.29 7.82-3.43 12.39-3.43 6.91 0 12.02 2.12 15.33 6.37 3.31 4.25 4.97 10.71 4.97 19.4v43.13h-6.16v-42.29c0-7.19-1.19-12.49-3.57-15.89-2.38-3.41-6.33-5.11-11.83-5.11-4.02 0-7.66 1.05-10.92 3.15-3.27 2.1-6.96 5.25-11.06 9.45v50.7h-6.16zM535.66 274.45c-1.49 0-2.76-.51-3.78-1.54-1.03-1.03-1.54-2.43-1.54-4.2 0-1.59.51-2.89 1.54-3.92 1.03-1.03 2.29-1.54 3.78-1.54 1.59 0 2.87.51 3.85 1.54s1.47 2.33 1.47 3.92c0 1.77-.49 3.17-1.47 4.2-.98 1.03-2.26 1.54-3.85 1.54zm-2.94 83.47V290.7h6.16v67.22h-6.16zM583.13 359.04c-6.54 0-10.97-1.87-13.3-5.6-2.33-3.73-3.5-8.59-3.5-14.56v-42.85h-10.5v-4.76l10.64-.56.84-22.27h5.32v22.27h19.47v5.32h-19.47v43.27c0 4.3.75 7.77 2.24 10.43 1.49 2.66 4.53 3.99 9.1 3.99 1.31 0 2.66-.16 4.06-.49 1.4-.33 2.85-.86 4.34-1.61l1.96 4.48c-3.91 1.96-7.65 2.94-11.2 2.94zM608.48 357.92V290.7h5.32l.56 12.46h.42c2.15-4.11 4.83-7.49 8.05-10.15 3.22-2.66 6.88-3.99 10.99-3.99 1.31 0 2.47.09 3.5.28 1.03.19 2.1.56 3.22 1.12l-1.68 5.32c-.93-.28-1.82-.49-2.66-.63-.84-.14-1.91-.21-3.22-.21-2.99 0-6.14 1.28-9.45 3.85-3.31 2.57-6.28 7.03-8.89 13.37v45.79h-6.16zM664.64 359.6c-5.32 0-9.9-1.49-13.72-4.48-3.83-2.99-5.74-7.65-5.74-14 0-7.47 3.5-13.14 10.5-17.02 7-3.87 17.97-6.65 32.91-8.33.09-3.45-.28-6.79-1.12-10.01-.84-3.22-2.4-5.9-4.69-8.05-2.29-2.15-5.67-3.22-10.15-3.22s-8.59.87-12.32 2.59c-3.74 1.73-6.77 3.39-9.1 4.97l-2.8-4.34c2.43-1.87 5.86-3.78 10.29-5.74 4.43-1.96 9.36-2.94 14.78-2.94 5.32 0 9.52 1.17 12.6 3.5s5.3 5.44 6.65 9.31c1.35 3.87 2.03 8.24 2.03 13.09v42.99h-5.32l-.56-8.68h-.42a73.106 73.106 0 0 1-11.2 7.21c-4.03 2.1-8.24 3.15-12.62 3.15zm1.12-5.46c3.83 0 7.54-.91 11.13-2.73 3.59-1.82 7.49-4.5 11.69-8.05v-22.69c-9.24 1.12-16.57 2.57-21.99 4.34-5.42 1.77-9.29 3.97-11.62 6.58-2.33 2.62-3.5 5.7-3.5 9.24 0 4.86 1.42 8.29 4.27 10.29 2.85 2.01 6.19 3.02 10.02 3.02zM743.62 359.6c-5.79 0-10.99-1.38-15.61-4.13-4.62-2.75-8.26-6.77-10.92-12.04s-3.99-11.6-3.99-18.98c0-7.56 1.42-13.98 4.27-19.26 2.85-5.27 6.6-9.29 11.27-12.04s9.71-4.13 15.13-4.13c4.67 0 8.54.77 11.62 2.31s5.79 3.52 8.12 5.95l-3.36 3.78a25.474 25.474 0 0 0-7.07-4.76c-2.66-1.21-5.72-1.82-9.17-1.82-4.57 0-8.71 1.26-12.39 3.78-3.69 2.52-6.61 6.02-8.75 10.5-2.15 4.48-3.22 9.71-3.22 15.68 0 5.88 1 11.04 3.01 15.47 2.01 4.44 4.85 7.91 8.54 10.43 3.69 2.52 7.96 3.78 12.81 3.78 3.55 0 6.88-.7 10.01-2.1 3.13-1.4 5.76-3.17 7.91-5.32l3.22 3.78c-2.8 2.71-5.98 4.9-9.52 6.58-3.55 1.7-7.52 2.54-11.91 2.54zM804.68 359.6c-5.69 0-10.9-1.4-15.61-4.2-4.72-2.8-8.47-6.84-11.27-12.11-2.8-5.27-4.2-11.55-4.2-18.84 0-7.37 1.4-13.7 4.2-18.98 2.8-5.27 6.44-9.33 10.92-12.18 4.48-2.85 9.2-4.27 14.15-4.27 8.03 0 14.33 2.71 18.91 8.12 4.57 5.42 6.86 13.07 6.86 22.97 0 .84-.02 1.68-.07 2.52-.05.84-.16 1.73-.35 2.66h-48.31c.19 5.98 1.4 11.11 3.64 15.4 2.24 4.3 5.25 7.61 9.03 9.94 3.78 2.34 8 3.5 12.67 3.5 3.64 0 6.98-.49 10.01-1.47 3.03-.98 5.72-2.31 8.05-3.99l2.52 4.34c-2.61 1.78-5.56 3.32-8.82 4.62-3.28 1.32-7.38 1.97-12.33 1.97zM803 294.34c-3.46 0-6.84.93-10.15 2.8-3.31 1.87-6.14 4.69-8.47 8.47-2.33 3.78-3.78 8.57-4.34 14.35h42.71c0-8.59-1.77-15.01-5.32-19.26-3.56-4.24-8.36-6.36-14.43-6.36z"/><path style="fill:#3bc9db" d="M879.24 245.28h91.42v38.9h-91.42z"/><path style="fill:#ff922b" d="M309.34 184.56h661.32v38.9H309.34z"/><g><path class="st3" d="M312.43 444.97v-29.86h16.36v1.81h-14.27v11.28h11.96v1.81h-11.96v13.14h14.73v1.81h-16.82zM330.96 444.97l7.39-11.37-6.8-10.37h2.22l3.53 5.53c.36.57.74 1.16 1.13 1.77l1.18 1.81h.18c.39-.6.76-1.21 1.11-1.81.35-.6.72-1.19 1.11-1.77l3.4-5.53h2.08l-6.75 10.56 7.39 11.19h-2.22l-3.85-5.93c-.39-.7-.81-1.37-1.25-2.04-.44-.66-.88-1.31-1.34-1.95h-.18a59.6 59.6 0 0 0-1.25 1.95c-.41.66-.82 1.34-1.25 2.04l-3.72 5.93h-2.11zM357.92 445.33c-2.11 0-3.55-.6-4.3-1.81-.76-1.21-1.13-2.78-1.13-4.71v-13.86h-3.4v-1.54l3.44-.18.27-7.2h1.72v7.2h6.3v1.72h-6.3v14c0 1.39.24 2.51.72 3.38.48.86 1.46 1.29 2.94 1.29.42 0 .86-.05 1.31-.16.45-.11.92-.28 1.4-.52l.63 1.45c-1.24.63-2.45.94-3.6.94zM366.12 444.97v-21.75h1.72l.18 4.03h.14c.69-1.33 1.56-2.42 2.61-3.28 1.04-.86 2.23-1.29 3.56-1.29.42 0 .8.03 1.13.09.33.06.68.18 1.04.36l-.54 1.72a5.985 5.985 0 0 0-1.9-.27c-.97 0-1.99.42-3.06 1.25-1.07.83-2.03 2.27-2.88 4.33v14.82h-2zM388.28 445.52c-1.84 0-3.53-.45-5.05-1.36-1.53-.91-2.74-2.21-3.65-3.92-.91-1.71-1.36-3.74-1.36-6.09 0-2.39.45-4.43 1.36-6.14.91-1.71 2.08-3.02 3.53-3.94 1.45-.92 2.97-1.38 4.58-1.38 2.6 0 4.64.88 6.12 2.63 1.48 1.75 2.22 4.23 2.22 7.43 0 .27-.01.54-.02.82-.02.27-.05.56-.11.86h-15.63c.06 1.93.45 3.6 1.18 4.98.73 1.39 1.7 2.46 2.92 3.22 1.22.76 2.59 1.13 4.1 1.13 1.18 0 2.26-.16 3.24-.48.98-.32 1.85-.75 2.61-1.29l.82 1.4c-.85.57-1.8 1.07-2.85 1.49-1.08.42-2.41.64-4.01.64zm-.55-21.12c-1.12 0-2.21.3-3.29.91-1.07.6-1.99 1.52-2.74 2.74-.76 1.22-1.22 2.77-1.4 4.64h13.82c0-2.78-.57-4.85-1.72-6.23-1.15-1.37-2.7-2.06-4.67-2.06zM401.92 444.97v-21.75h1.72l.18 3.35h.14a14.2 14.2 0 0 1 3.24-2.79c1.19-.74 2.39-1.11 3.6-1.11 1.75 0 3.1.41 4.03 1.22.94.82 1.6 1.89 1.99 3.22 1.24-1.36 2.47-2.44 3.69-3.24 1.22-.8 2.45-1.2 3.69-1.2 4.35 0 6.52 2.78 6.52 8.34v13.95h-2.04v-13.68c0-4.53-1.62-6.8-4.85-6.8-1.93 0-4.11 1.36-6.52 4.08v16.4h-1.99v-13.68c0-2.33-.39-4.04-1.18-5.14-.79-1.1-2.02-1.65-3.72-1.65-1.93 0-4.11 1.36-6.52 4.08v16.4h-1.98zM446.95 445.52c-1.84 0-3.53-.45-5.05-1.36-1.53-.91-2.74-2.21-3.65-3.92-.91-1.71-1.36-3.74-1.36-6.09 0-2.39.45-4.43 1.36-6.14.91-1.71 2.08-3.02 3.53-3.94 1.45-.92 2.97-1.38 4.58-1.38 2.6 0 4.64.88 6.12 2.63 1.48 1.75 2.22 4.23 2.22 7.43 0 .27-.01.54-.02.82-.02.27-.05.56-.11.86h-15.63c.06 1.93.45 3.6 1.18 4.98.73 1.39 1.7 2.46 2.92 3.22 1.22.76 2.59 1.13 4.1 1.13 1.18 0 2.26-.16 3.24-.48.98-.32 1.85-.75 2.61-1.29l.82 1.4c-.85.57-1.8 1.07-2.85 1.49-1.08.42-2.41.64-4.01.64zm-.54-21.12c-1.12 0-2.21.3-3.29.91-1.07.6-1.99 1.52-2.74 2.74-.76 1.22-1.22 2.77-1.4 4.64h13.82c0-2.78-.57-4.85-1.72-6.23-1.15-1.37-2.71-2.06-4.67-2.06zM463.26 445.33c-.88 0-1.54-.27-1.99-.82-.45-.54-.68-1.42-.68-2.63v-29.5h1.99v29.77c0 .51.1.88.29 1.09.2.21.44.32.75.32.09 0 .19-.01.29-.02.11-.01.25-.04.43-.07l.36 1.59c-.38.18-.87.27-1.44.27zM470.47 454.9c-.88 0-1.62-.17-2.22-.5l.54-1.68c.54.21 1.1.32 1.68.32 1.33 0 2.45-.54 3.38-1.63.92-1.09 1.65-2.46 2.2-4.12l.59-1.9-8.93-22.16h2.17l5.26 13.68c.33.91.71 1.9 1.13 2.99.42 1.09.83 2.11 1.22 3.08h.18c.33-.97.67-1.99 1.02-3.08s.67-2.08.97-2.99l4.67-13.68h2.04l-8.61 24.47c-.39 1.21-.91 2.36-1.56 3.47-.65 1.1-1.44 2-2.38 2.7-.94.68-2.06 1.03-3.35 1.03zM500.46 444.97v-20.03h-3.22v-1.54l3.22-.18v-4.85c0-2.14.47-3.77 1.4-4.87s2.27-1.65 3.99-1.65c1.09 0 2.14.24 3.17.72l-.59 1.54c-.91-.36-1.77-.54-2.58-.54-1.15 0-2 .43-2.56 1.29-.56.86-.84 2.08-.84 3.65v4.71h5.03v1.72h-5.03v20.03h-1.99zM515.91 445.52c-1.72 0-3.2-.48-4.44-1.45-1.24-.97-1.86-2.48-1.86-4.53 0-2.42 1.13-4.25 3.4-5.51 2.27-1.25 5.81-2.15 10.65-2.7.03-1.12-.09-2.2-.36-3.24s-.78-1.91-1.52-2.61-1.83-1.04-3.29-1.04c-1.45 0-2.78.28-3.99.84-1.21.56-2.19 1.09-2.94 1.61l-.91-1.4c.79-.6 1.9-1.22 3.33-1.86s3.03-.95 4.78-.95c1.72 0 3.08.38 4.08 1.13 1 .76 1.71 1.76 2.15 3.01.44 1.25.66 2.67.66 4.24v13.91h-1.72l-.18-2.81h-.14c-1.12.88-2.33 1.65-3.62 2.33-1.3.69-2.66 1.03-4.08 1.03zm.36-1.77c1.24 0 2.44-.29 3.6-.88 1.16-.59 2.42-1.46 3.78-2.61v-7.34c-2.99.36-5.36.83-7.11 1.4s-3.01 1.28-3.76 2.13c-.76.85-1.13 1.84-1.13 2.99 0 1.57.46 2.68 1.38 3.33.92.66 2 .98 3.24.98zM538.65 445.52c-1.66 0-3.16-.27-4.51-.82-1.34-.54-2.5-1.28-3.47-2.22l1.09-1.27c.91.79 1.9 1.41 2.97 1.88 1.07.47 2.42.7 4.05.7 1.69 0 2.97-.43 3.85-1.29.88-.86 1.31-1.87 1.31-3.01 0-.91-.26-1.66-.79-2.27-.53-.6-1.2-1.1-2.02-1.49-.82-.39-1.65-.74-2.49-1.04-1.09-.39-2.15-.84-3.19-1.34-1.04-.5-1.9-1.13-2.56-1.9-.66-.77-1-1.76-1-2.97 0-1.6.6-2.97 1.79-4.1 1.19-1.13 2.92-1.7 5.19-1.7 1.24 0 2.39.21 3.47.63 1.07.42 2 .97 2.79 1.63l-1.09 1.22c-.72-.51-1.5-.94-2.33-1.27-.83-.33-1.79-.5-2.88-.5-1.69 0-2.94.41-3.74 1.22-.8.82-1.2 1.72-1.2 2.72 0 .82.23 1.49.68 2.02.45.53 1.06.97 1.83 1.34.77.36 1.59.71 2.47 1.04 1.15.42 2.27.88 3.35 1.36 1.09.48 1.99 1.13 2.7 1.95.71.82 1.07 1.93 1.07 3.35 0 1.09-.29 2.09-.86 3.01-.57.92-1.4 1.67-2.49 2.24-1.09.59-2.42.88-3.99.88zM556.78 445.33c-2.11 0-3.55-.6-4.3-1.81-.76-1.21-1.13-2.78-1.13-4.71v-13.86h-3.4v-1.54l3.44-.18.27-7.2h1.72v7.2h6.3v1.72h-6.3v14c0 1.39.24 2.51.72 3.38.48.86 1.46 1.29 2.94 1.29.42 0 .86-.05 1.31-.16.45-.11.92-.28 1.4-.52l.63 1.45c-1.25.63-2.46.94-3.6.94zM579.97 445.33c-2.11 0-3.55-.6-4.3-1.81-.76-1.21-1.13-2.78-1.13-4.71v-13.86h-3.4v-1.54l3.44-.18.27-7.2h1.72v7.2h6.3v1.72h-6.3v14c0 1.39.24 2.51.72 3.38.48.86 1.46 1.29 2.94 1.29.42 0 .86-.05 1.31-.16.45-.11.92-.28 1.4-.52l.63 1.45c-1.24.63-2.45.94-3.6.94zM588.17 444.97v-21.75h1.72l.18 4.03h.14c.69-1.33 1.56-2.42 2.61-3.28 1.04-.86 2.23-1.29 3.56-1.29.42 0 .8.03 1.13.09.33.06.68.18 1.04.36l-.54 1.72a5.985 5.985 0 0 0-1.9-.27c-.97 0-1.99.42-3.06 1.25-1.07.83-2.03 2.27-2.88 4.33v14.82h-2zM606.34 445.52c-1.72 0-3.2-.48-4.44-1.45-1.24-.97-1.86-2.48-1.86-4.53 0-2.42 1.13-4.25 3.4-5.51 2.27-1.25 5.81-2.15 10.65-2.7.03-1.12-.09-2.2-.36-3.24s-.78-1.91-1.52-2.61-1.83-1.04-3.29-1.04c-1.45 0-2.78.28-3.99.84-1.21.56-2.19 1.09-2.94 1.61l-.91-1.4c.79-.6 1.9-1.22 3.33-1.86s3.03-.95 4.78-.95c1.72 0 3.08.38 4.08 1.13 1 .76 1.71 1.76 2.15 3.01.44 1.25.66 2.67.66 4.24v13.91h-1.72l-.18-2.81h-.14c-1.12.88-2.33 1.65-3.62 2.33-1.3.69-2.66 1.03-4.08 1.03zm.37-1.77c1.24 0 2.44-.29 3.6-.88 1.16-.59 2.42-1.46 3.78-2.61v-7.34c-2.99.36-5.36.83-7.11 1.4s-3.01 1.28-3.76 2.13c-.76.85-1.13 1.84-1.13 2.99 0 1.57.46 2.68 1.38 3.33.92.66 2 .98 3.24.98zM631.9 445.52c-1.87 0-3.56-.45-5.05-1.34-1.5-.89-2.67-2.19-3.53-3.9-.86-1.71-1.29-3.75-1.29-6.14 0-2.45.46-4.52 1.38-6.23.92-1.71 2.14-3.01 3.65-3.9a9.47 9.47 0 0 1 4.89-1.34c1.51 0 2.76.25 3.76.75s1.87 1.14 2.63 1.93l-1.09 1.22a8.226 8.226 0 0 0-2.29-1.54c-.86-.39-1.85-.59-2.97-.59-1.48 0-2.82.41-4.01 1.22-1.19.82-2.14 1.95-2.83 3.4-.7 1.45-1.04 3.14-1.04 5.07 0 1.9.32 3.57.97 5.01.65 1.44 1.57 2.56 2.76 3.38 1.19.82 2.57 1.22 4.15 1.22 1.15 0 2.23-.23 3.24-.68a8.583 8.583 0 0 0 2.56-1.72l1.04 1.22c-.91.88-1.93 1.59-3.08 2.13-1.15.55-2.43.83-3.85.83zM645.13 417.97c-.48 0-.89-.17-1.22-.5-.33-.33-.5-.79-.5-1.36 0-.51.17-.94.5-1.27.33-.33.74-.5 1.22-.5.51 0 .93.17 1.25.5s.48.75.48 1.27c0 .57-.16 1.03-.48 1.36-.33.33-.74.5-1.25.5zm-.96 27v-21.75h1.99v21.75h-1.99zM654.55 444.97v-21.75h1.72l.18 3.35h.14c1.12-1.12 2.27-2.05 3.47-2.79 1.19-.74 2.53-1.11 4.01-1.11 2.24 0 3.89.69 4.96 2.06 1.07 1.37 1.61 3.47 1.61 6.27v13.95h-1.99v-13.68c0-2.33-.39-4.04-1.15-5.14-.77-1.1-2.05-1.65-3.83-1.65-1.3 0-2.48.34-3.53 1.02-1.06.68-2.25 1.7-3.58 3.06v16.4h-2.01zM685.77 455.44c-2.75 0-4.92-.54-6.52-1.63-1.6-1.09-2.4-2.55-2.4-4.4 0-.97.29-1.9.86-2.81.57-.91 1.36-1.72 2.36-2.45v-.18c-.54-.33-1-.79-1.36-1.36-.36-.57-.54-1.28-.54-2.13 0-.97.27-1.79.82-2.47.54-.68 1.06-1.19 1.54-1.52v-.18c-.66-.6-1.28-1.43-1.86-2.47-.57-1.04-.86-2.21-.86-3.51 0-1.51.34-2.84 1.02-3.99a7.3 7.3 0 0 1 2.76-2.7c1.16-.65 2.45-.97 3.87-.97.6 0 1.15.05 1.63.16s.89.23 1.22.39h7.39v1.68h-5.07v.18c.69.54 1.27 1.25 1.72 2.13.45.88.68 1.93.68 3.17 0 1.48-.33 2.79-1 3.94a7.32 7.32 0 0 1-2.72 2.72c-1.15.66-2.43 1-3.85 1-.6 0-1.23-.07-1.88-.23-.65-.15-1.23-.38-1.74-.68-.48.39-.9.83-1.25 1.31-.35.48-.52 1.09-.52 1.81 0 .79.29 1.46.86 2.02.57.56 1.68.84 3.31.84h4.67c2.45 0 4.25.4 5.41 1.2 1.16.8 1.74 2.06 1.74 3.78 0 1.24-.42 2.42-1.27 3.56-.85 1.13-2.04 2.05-3.58 2.74-1.55.7-3.36 1.05-5.44 1.05zm.22-1.63c1.63 0 3.04-.27 4.24-.82 1.19-.54 2.12-1.23 2.79-2.06.66-.83 1-1.7 1-2.61 0-1.21-.43-2.06-1.29-2.56-.86-.5-2.11-.75-3.74-.75h-4.67c-.21 0-.57-.03-1.09-.09-.51-.06-1.06-.15-1.63-.27-1 .66-1.72 1.4-2.18 2.2-.45.8-.68 1.59-.68 2.38 0 1.36.63 2.46 1.9 3.31 1.28.84 3.06 1.27 5.35 1.27zm-.54-17.36c1 0 1.93-.26 2.79-.77.86-.51 1.55-1.23 2.06-2.15.51-.92.77-1.99.77-3.19 0-1.87-.55-3.35-1.65-4.42-1.1-1.07-2.42-1.61-3.96-1.61s-2.87.54-3.99 1.61-1.68 2.55-1.68 4.42c0 1.21.26 2.27.79 3.19.53.92 1.22 1.64 2.08 2.15.87.52 1.79.77 2.79.77zM712.45 445.33c-.88 0-1.54-.27-1.99-.82-.45-.54-.68-1.42-.68-2.63v-29.5h1.99v29.77c0 .51.1.88.29 1.09.2.21.45.32.75.32.09 0 .19-.01.29-.02.11-.01.25-.04.43-.07l.36 1.59c-.38.18-.86.27-1.44.27zM721.47 417.97c-.48 0-.89-.17-1.22-.5-.33-.33-.5-.79-.5-1.36 0-.51.17-.94.5-1.27.33-.33.74-.5 1.22-.5.51 0 .93.17 1.25.5.32.33.48.75.48 1.27 0 .57-.16 1.03-.48 1.36-.32.33-.74.5-1.25.5zm-.95 27v-21.75h1.99v21.75h-1.99zM739.41 445.52c-1.03 0-2.11-.25-3.26-.75s-2.24-1.17-3.26-2.02h-.09l-.23 2.22h-1.68V412.4h1.99v9.42l-.09 4.26c1.12-.94 2.32-1.74 3.6-2.4 1.28-.66 2.59-1 3.92-1 2.9 0 5.07 1 6.52 3.01s2.18 4.7 2.18 8.09c0 2.45-.45 4.55-1.34 6.3-.89 1.75-2.06 3.1-3.51 4.03a8.528 8.528 0 0 1-4.75 1.41zm-.09-1.77c1.48 0 2.79-.42 3.92-1.27 1.13-.84 2.02-2.02 2.67-3.51.65-1.5.97-3.22.97-5.19 0-1.78-.23-3.38-.68-4.78-.45-1.4-1.19-2.52-2.2-3.33-1.01-.82-2.35-1.22-4.01-1.22-1.09 0-2.22.31-3.4.93-1.18.62-2.42 1.5-3.71 2.65v12.91c1.21 1.03 2.37 1.75 3.49 2.17 1.12.43 2.1.64 2.95.64zM755.45 444.97v-21.75h1.72l.18 4.03h.14c.7-1.33 1.56-2.42 2.61-3.28 1.04-.86 2.23-1.29 3.56-1.29.42 0 .8.03 1.13.09.33.06.68.18 1.04.36l-.54 1.72a5.985 5.985 0 0 0-1.9-.27c-.97 0-1.99.42-3.06 1.25-1.07.83-2.03 2.27-2.88 4.33v14.82h-2zM773.62 445.52c-1.72 0-3.2-.48-4.44-1.45-1.24-.97-1.86-2.48-1.86-4.53 0-2.42 1.13-4.25 3.4-5.51 2.27-1.25 5.81-2.15 10.65-2.7.03-1.12-.09-2.2-.36-3.24s-.78-1.91-1.52-2.61-1.83-1.04-3.28-1.04c-1.45 0-2.78.28-3.99.84-1.21.56-2.19 1.09-2.95 1.61l-.91-1.4c.79-.6 1.9-1.22 3.33-1.86 1.43-.63 3.03-.95 4.78-.95 1.72 0 3.08.38 4.08 1.13 1 .76 1.71 1.76 2.15 3.01.44 1.25.66 2.67.66 4.24v13.91h-1.72l-.18-2.81h-.14c-1.12.88-2.33 1.65-3.62 2.33-1.3.69-2.66 1.03-4.08 1.03zm.36-1.77c1.24 0 2.44-.29 3.6-.88 1.16-.59 2.42-1.46 3.78-2.61v-7.34c-2.99.36-5.36.83-7.11 1.4s-3.01 1.28-3.76 2.13c-.76.85-1.13 1.84-1.13 2.99 0 1.57.46 2.68 1.38 3.33.92.66 2 .98 3.24.98zM791.11 444.97v-21.75h1.72l.18 4.03h.14c.7-1.33 1.56-2.42 2.61-3.28 1.04-.86 2.23-1.29 3.56-1.29.42 0 .8.03 1.13.09.33.06.68.18 1.04.36l-.54 1.72a5.985 5.985 0 0 0-1.9-.27c-.97 0-1.99.42-3.06 1.25-1.07.83-2.03 2.27-2.88 4.33v14.82h-2zM806.24 454.9c-.88 0-1.62-.17-2.22-.5l.54-1.68c.54.21 1.1.32 1.68.32 1.33 0 2.45-.54 3.38-1.63.92-1.09 1.65-2.46 2.2-4.12l.59-1.9-8.93-22.16h2.18l5.26 13.68c.33.91.71 1.9 1.13 2.99.42 1.09.83 2.11 1.22 3.08h.18c.33-.97.67-1.99 1.02-3.08s.67-2.08.97-2.99l4.67-13.68h2.04l-8.61 24.47c-.39 1.21-.91 2.36-1.56 3.47-.65 1.1-1.44 2-2.38 2.7-.95.68-2.06 1.03-3.36 1.03zM836.23 444.97v-20.03h-3.22v-1.54l3.22-.18v-4.85c0-2.14.47-3.77 1.4-4.87.94-1.1 2.27-1.65 3.99-1.65 1.09 0 2.14.24 3.17.72l-.59 1.54c-.91-.36-1.77-.54-2.58-.54-1.15 0-2 .43-2.56 1.29-.56.86-.84 2.08-.84 3.65v4.71h5.03v1.72h-5.03v20.03h-1.99zM855.31 445.52c-1.72 0-3.32-.45-4.8-1.34-1.48-.89-2.67-2.19-3.58-3.9-.91-1.71-1.36-3.75-1.36-6.14 0-2.45.45-4.52 1.36-6.23.91-1.71 2.1-3.01 3.58-3.9a9.154 9.154 0 0 1 4.8-1.34c1.75 0 3.37.45 4.85 1.34 1.48.89 2.67 2.19 3.58 3.9.91 1.71 1.36 3.78 1.36 6.23 0 2.39-.45 4.43-1.36 6.14-.91 1.71-2.1 3.01-3.58 3.9-1.49.89-3.1 1.34-4.85 1.34zm0-1.77c1.48 0 2.79-.41 3.94-1.22 1.15-.82 2.06-1.94 2.74-3.38.68-1.44 1.02-3.1 1.02-5.01 0-1.93-.34-3.62-1.02-5.07-.68-1.45-1.59-2.58-2.74-3.4-1.15-.82-2.46-1.22-3.94-1.22-1.45 0-2.76.41-3.92 1.22-1.16.82-2.08 1.95-2.74 3.4-.66 1.45-1 3.14-1 5.07 0 1.9.33 3.57 1 5.01.66 1.44 1.58 2.56 2.74 3.38 1.16.81 2.47 1.22 3.92 1.22zM871.62 444.97v-21.75h1.72l.18 4.03h.14c.7-1.33 1.56-2.42 2.61-3.28 1.04-.86 2.23-1.29 3.56-1.29.42 0 .8.03 1.13.09.33.06.68.18 1.04.36l-.54 1.72a5.985 5.985 0 0 0-1.9-.27c-.97 0-1.99.42-3.06 1.25-1.07.83-2.03 2.27-2.88 4.33v14.82h-2zM895.27 444.97v-29.86h8.56c2.96 0 5.33.6 7.11 1.79 1.78 1.19 2.67 3.22 2.67 6.09 0 2.39-.69 4.26-2.06 5.62-1.37 1.36-3.24 2.19-5.6 2.49l8.25 13.86h-2.4l-8.11-13.73h-6.34v13.73h-2.08zm2.08-15.45h5.93c2.63 0 4.65-.54 6.07-1.61s2.13-2.71 2.13-4.92c0-2.23-.71-3.81-2.13-4.73-1.42-.92-3.44-1.38-6.07-1.38h-5.93v12.64zM925.94 445.52c-2.24 0-3.89-.69-4.96-2.06-1.07-1.37-1.61-3.47-1.61-6.27v-13.95h1.99v13.68c0 2.3.39 4 1.16 5.12.77 1.12 2.03 1.68 3.78 1.68 1.3 0 2.48-.35 3.53-1.06 1.06-.71 2.22-1.83 3.49-3.38v-16.04h1.99v21.75h-1.68l-.23-3.62h-.09c-1.06 1.24-2.17 2.24-3.35 3.01-1.17.75-2.51 1.14-4.02 1.14zM948.91 445.52c-1.66 0-3.17-.27-4.51-.82-1.34-.54-2.5-1.28-3.47-2.22l1.09-1.27c.91.79 1.9 1.41 2.97 1.88 1.07.47 2.42.7 4.05.7 1.69 0 2.97-.43 3.85-1.29.88-.86 1.31-1.87 1.31-3.01 0-.91-.26-1.66-.79-2.27-.53-.6-1.2-1.1-2.02-1.49-.82-.39-1.65-.74-2.49-1.04-1.09-.39-2.15-.84-3.19-1.34-1.04-.5-1.9-1.13-2.56-1.9-.66-.77-1-1.76-1-2.97 0-1.6.6-2.97 1.79-4.1 1.19-1.13 2.92-1.7 5.19-1.7 1.24 0 2.39.21 3.47.63 1.07.42 2 .97 2.79 1.63l-1.09 1.22c-.73-.51-1.5-.94-2.33-1.27-.83-.33-1.79-.5-2.88-.5-1.69 0-2.94.41-3.74 1.22-.8.82-1.2 1.72-1.2 2.72 0 .82.23 1.49.68 2.02.45.53 1.06.97 1.83 1.34s1.59.71 2.47 1.04c1.15.42 2.27.88 3.35 1.36 1.09.48 1.99 1.13 2.7 1.95.71.82 1.06 1.93 1.06 3.35 0 1.09-.29 2.09-.86 3.01-.57.92-1.4 1.67-2.49 2.24-1.08.59-2.41.88-3.98.88zM967.03 445.33c-2.11 0-3.55-.6-4.3-1.81-.76-1.21-1.13-2.78-1.13-4.71v-13.86h-3.4v-1.54l3.44-.18.27-7.2h1.72v7.2h6.3v1.72h-6.3v14c0 1.39.24 2.51.73 3.38.48.86 1.46 1.29 2.95 1.29.42 0 .86-.05 1.31-.16.45-.11.92-.28 1.4-.52l.63 1.45c-1.26.63-2.47.94-3.62.94z"/></g></svg>