<svg version="1.1" xmlns="http://www.w3.org/2000/svg" x="0" y="0" viewBox="0 0 640 200" style="enable-background:new 0 0 640 200" xml:space="preserve"><style>.st0{fill:#343a40}.st3{fill:#495057}</style><path class="st0" d="M185.39 115.58V87.96h2.19l.23 4.26h.17c1.23-1.42 2.6-2.6 4.12-3.54s3.04-1.41 4.57-1.41c2.22 0 3.93.52 5.12 1.55 1.19 1.04 2.03 2.4 2.53 4.09 1.57-1.73 3.14-3.1 4.69-4.11 1.55-1.02 3.12-1.52 4.69-1.52 5.52 0 8.29 3.53 8.29 10.59v17.72h-2.59V98.2c0-5.75-2.05-8.63-6.16-8.63-2.46 0-5.22 1.73-8.29 5.18v20.83h-2.53V98.2c0-2.95-.5-5.13-1.5-6.53-1-1.4-2.57-2.1-4.72-2.1-2.46 0-5.22 1.73-8.29 5.18v20.83h-2.52zM233.33 81.28c-.61 0-1.13-.21-1.55-.63-.42-.42-.63-1-.63-1.73 0-.65.21-1.19.63-1.61.42-.42.94-.63 1.55-.63.65 0 1.18.21 1.58.63.4.42.6.96.6 1.61 0 .73-.2 1.3-.6 1.73-.4.42-.93.63-1.58.63zm-1.21 34.3V87.96h2.53v27.62h-2.53zM245.3 115.58V87.96h2.19l.23 4.26h.17c1.42-1.42 2.89-2.6 4.4-3.54 1.52-.94 3.21-1.41 5.09-1.41 2.84 0 4.94.87 6.3 2.62 1.36 1.75 2.04 4.4 2.04 7.97v17.72h-2.53V98.2c0-2.95-.49-5.13-1.47-6.53-.98-1.4-2.6-2.1-4.86-2.1-1.65 0-3.15.43-4.49 1.29-1.34.86-2.86 2.16-4.55 3.88v20.83h-2.52zM277.12 81.28c-.61 0-1.13-.21-1.55-.63-.42-.42-.63-1-.63-1.73 0-.65.21-1.19.63-1.61.42-.42.94-.63 1.55-.63.65 0 1.18.21 1.58.63.4.42.6.96.6 1.61 0 .73-.2 1.3-.6 1.73-.4.42-.92.63-1.58.63zm-1.2 34.3V87.96h2.53v27.62h-2.53zM296.63 116.04c-2.69 0-4.51-.77-5.47-2.3-.96-1.53-1.44-3.53-1.44-5.98V90.15h-4.32v-1.96l4.37-.23.35-9.15h2.19v9.15h8v2.19h-8v17.78c0 1.77.31 3.19.92 4.29.61 1.09 1.86 1.64 3.74 1.64a7.604 7.604 0 0 0 3.45-.86l.81 1.84c-1.61.8-3.14 1.2-4.6 1.2zM307.05 115.58V87.96h2.19l.23 5.12h.17c.88-1.69 1.99-3.08 3.31-4.17 1.32-1.09 2.83-1.64 4.52-1.64.54 0 1.02.04 1.44.12.42.08.86.23 1.32.46l-.69 2.19c-.38-.12-.75-.2-1.09-.26-.35-.06-.79-.09-1.32-.09-1.23 0-2.52.53-3.88 1.58-1.36 1.06-2.58 2.89-3.65 5.5v18.82h-2.55zM330.12 116.27c-2.19 0-4.07-.61-5.64-1.84-1.57-1.23-2.36-3.15-2.36-5.76 0-3.07 1.44-5.4 4.32-6.99 2.88-1.59 7.38-2.73 13.52-3.42.04-1.42-.12-2.79-.46-4.11-.35-1.32-.99-2.43-1.93-3.31-.94-.88-2.33-1.32-4.17-1.32-1.84 0-3.53.36-5.06 1.06-1.53.71-2.78 1.39-3.74 2.04l-1.15-1.78c1-.77 2.41-1.55 4.23-2.36 1.82-.81 3.85-1.21 6.07-1.21 2.19 0 3.91.48 5.18 1.44 1.27.96 2.18 2.24 2.73 3.83.56 1.59.83 3.39.83 5.38v17.67h-2.19l-.23-3.57h-.17a29.86 29.86 0 0 1-4.6 2.96c-1.65.86-3.37 1.29-5.18 1.29zm.46-2.24c1.57 0 3.1-.37 4.58-1.12 1.48-.75 3.08-1.85 4.81-3.31v-9.32c-3.8.46-6.81 1.06-9.04 1.78-2.23.73-3.82 1.63-4.78 2.7-.96 1.07-1.44 2.34-1.44 3.8 0 2 .58 3.41 1.76 4.23 1.17.83 2.54 1.24 4.11 1.24zM362.58 116.27c-2.38 0-4.52-.57-6.42-1.7-1.9-1.13-3.4-2.78-4.49-4.95-1.09-2.17-1.64-4.77-1.64-7.8 0-3.11.58-5.74 1.76-7.91 1.17-2.17 2.71-3.82 4.63-4.95 1.92-1.13 3.99-1.7 6.22-1.7 1.92 0 3.51.32 4.78.95 1.27.63 2.38 1.45 3.34 2.45l-1.38 1.55c-.84-.81-1.81-1.46-2.91-1.96-1.09-.5-2.35-.75-3.77-.75-1.88 0-3.58.52-5.09 1.55-1.52 1.04-2.71 2.47-3.6 4.32-.88 1.84-1.32 3.99-1.32 6.45 0 2.42.41 4.54 1.24 6.36.82 1.82 1.99 3.25 3.51 4.29 1.52 1.04 3.27 1.55 5.27 1.55 1.46 0 2.83-.29 4.12-.86 1.28-.58 2.37-1.3 3.25-2.19l1.32 1.55a14.68 14.68 0 0 1-3.91 2.7c-1.48.71-3.11 1.05-4.91 1.05zM387.67 116.27c-2.34 0-4.48-.58-6.42-1.73-1.94-1.15-3.48-2.81-4.63-4.98-1.15-2.17-1.73-4.75-1.73-7.74 0-3.03.58-5.63 1.73-7.8s2.65-3.84 4.49-5.01c1.84-1.17 3.78-1.76 5.81-1.76 3.3 0 5.89 1.11 7.77 3.34 1.88 2.23 2.82 5.37 2.82 9.44 0 .35-.01.69-.03 1.04-.02.35-.07.71-.14 1.09h-19.85c.08 2.46.58 4.57 1.5 6.33.92 1.77 2.16 3.13 3.71 4.09 1.55.96 3.29 1.44 5.21 1.44 1.5 0 2.87-.2 4.12-.6 1.25-.4 2.35-.95 3.31-1.64l1.04 1.78c-1.07.73-2.28 1.36-3.62 1.9-1.37.54-3.05.81-5.09.81zm-.69-26.82c-1.42 0-2.81.38-4.17 1.15-1.36.77-2.52 1.93-3.48 3.48s-1.55 3.52-1.78 5.9h17.55c0-3.53-.73-6.17-2.19-7.91-1.46-1.74-3.44-2.62-5.93-2.62z"/><path style="fill:#3bc9db" d="M418.31 69.29h37.57v15.99h-37.57z"/><path style="fill:#ff922b" d="M184.12 44.34h271.76v15.99H184.12z"/><g><path class="st3" d="M185.39 151.36v-12.27h6.72v.74h-5.86v4.64h4.92v.74h-4.92v5.4h6.05v.74h-6.91zM193.01 151.36l3.03-4.67-2.79-4.26h.91l1.45 2.27c.15.24.3.48.47.73.16.25.32.5.48.74h.07c.16-.25.31-.5.46-.74.14-.25.29-.49.46-.73l1.4-2.27h.86l-2.77 4.34 3.03 4.6h-.91l-1.58-2.44c-.16-.29-.33-.56-.51-.84-.18-.27-.36-.54-.55-.8h-.07c-.17.26-.34.53-.51.8-.17.27-.34.55-.51.84l-1.53 2.44h-.89zM204.08 151.5c-.87 0-1.46-.25-1.77-.74-.31-.5-.47-1.14-.47-1.94v-5.7h-1.4v-.63l1.42-.07.11-2.96h.71v2.96h2.59v.71h-2.59v5.75c0 .57.1 1.03.3 1.39.2.35.6.53 1.21.53.17 0 .35-.02.54-.06.19-.04.38-.11.58-.21l.26.6c-.52.24-1.01.37-1.49.37zM207.45 151.36v-8.94h.71l.07 1.66h.06c.29-.55.64-1 1.07-1.35.43-.35.92-.53 1.46-.53.17 0 .33.01.47.04.14.02.28.07.43.15l-.22.71c-.12-.04-.24-.07-.35-.08s-.25-.03-.43-.03c-.4 0-.82.17-1.26.51-.44.34-.83.93-1.18 1.78v6.09h-.83zM216.56 151.58c-.76 0-1.45-.19-2.08-.56-.63-.37-1.13-.91-1.5-1.61-.37-.7-.56-1.54-.56-2.5 0-.98.19-1.82.56-2.52.37-.7.86-1.24 1.45-1.62.6-.38 1.22-.57 1.88-.57 1.07 0 1.91.36 2.51 1.08.61.72.91 1.74.91 3.05 0 .11 0 .22-.01.34s-.02.23-.05.35h-6.42c.02.79.19 1.48.48 2.05.3.57.7 1.01 1.2 1.32.5.31 1.06.47 1.69.47.48 0 .93-.06 1.33-.2.4-.13.76-.31 1.07-.53l.34.58c-.35.24-.74.44-1.17.61-.43.17-.97.26-1.63.26zm-.22-8.68c-.46 0-.91.12-1.35.37-.44.25-.82.62-1.13 1.13-.31.5-.5 1.14-.58 1.91h5.68c0-1.14-.24-1.99-.71-2.56-.47-.56-1.11-.85-1.91-.85zM222.16 151.36v-8.94h.71l.07 1.38h.06c.4-.46.84-.84 1.33-1.14.49-.3.98-.46 1.48-.46.72 0 1.27.17 1.66.5.38.34.66.78.82 1.32.51-.56 1.01-1 1.52-1.33.5-.33 1.01-.49 1.52-.49 1.79 0 2.68 1.14 2.68 3.43v5.73h-.84v-5.62c0-1.86-.66-2.79-1.99-2.79-.79 0-1.69.56-2.68 1.68v6.74h-.82v-5.62c0-.96-.16-1.66-.48-2.11-.32-.45-.83-.68-1.53-.68-.79 0-1.69.56-2.68 1.68v6.74h-.83zM240.67 151.58c-.76 0-1.45-.19-2.08-.56-.63-.37-1.13-.91-1.5-1.61-.37-.7-.56-1.54-.56-2.5 0-.98.19-1.82.56-2.52.37-.7.86-1.24 1.45-1.62.6-.38 1.22-.57 1.88-.57 1.07 0 1.91.36 2.51 1.08.61.72.91 1.74.91 3.05 0 .11 0 .22-.01.34-.01.11-.02.23-.05.35h-6.42c.02.79.19 1.48.48 2.05.3.57.7 1.01 1.2 1.32.5.31 1.06.47 1.69.47.48 0 .93-.06 1.33-.2.4-.13.76-.31 1.07-.53l.34.58c-.35.24-.74.44-1.17.61-.43.17-.97.26-1.63.26zm-.22-8.68c-.46 0-.91.12-1.35.37-.44.25-.82.62-1.13 1.13-.31.5-.5 1.14-.58 1.91h5.68c0-1.14-.24-1.99-.71-2.56-.47-.56-1.11-.85-1.91-.85zM247.37 151.5c-.36 0-.63-.11-.82-.34-.19-.22-.28-.58-.28-1.08v-12.12h.82v12.23c0 .21.04.36.12.45.08.09.18.13.31.13.04 0 .08 0 .12-.01.04-.01.1-.02.18-.03l.15.65c-.16.09-.36.12-.6.12zM250.33 155.43c-.36 0-.66-.07-.91-.2l.22-.69c.22.09.45.13.69.13.55 0 1.01-.22 1.39-.67.38-.45.68-1.01.9-1.69l.24-.78-3.67-9.1h.89l2.16 5.62c.14.37.29.78.47 1.23.17.45.34.87.5 1.27h.07c.14-.4.28-.82.42-1.27.14-.45.28-.86.4-1.23l1.92-5.62h.84l-3.54 10.05c-.16.5-.38.97-.64 1.42-.27.45-.59.82-.98 1.11-.37.28-.83.42-1.37.42zM262.66 151.36v-8.23h-1.32v-.63l1.32-.07v-1.99c0-.88.19-1.55.58-2 .38-.45.93-.68 1.64-.68.45 0 .88.1 1.3.3l-.24.63c-.37-.15-.73-.22-1.06-.22-.47 0-.82.18-1.05.53-.23.35-.34.85-.34 1.5v1.94h2.07v.71h-2.07v8.23h-.83zM269.01 151.58c-.71 0-1.32-.2-1.82-.6-.51-.4-.76-1.02-.76-1.86 0-.99.47-1.75 1.4-2.26.93-.51 2.39-.88 4.38-1.11.01-.46-.04-.9-.15-1.33-.11-.43-.32-.78-.62-1.07-.3-.29-.75-.43-1.35-.43-.6 0-1.14.12-1.64.34-.5.23-.9.45-1.21.66l-.37-.58c.32-.25.78-.5 1.37-.76.59-.26 1.24-.39 1.96-.39.71 0 1.27.16 1.68.47.41.31.7.72.88 1.24.18.52.27 1.1.27 1.74v5.72h-.71l-.07-1.15h-.06c-.46.36-.96.68-1.49.96-.55.27-1.11.41-1.69.41zm.15-.73c.51 0 1-.12 1.48-.36s1-.6 1.55-1.07v-3.02c-1.23.15-2.2.34-2.92.58-.72.24-1.24.53-1.55.87a1.8 1.8 0 0 0-.47 1.23c0 .65.19 1.1.57 1.37.38.27.83.4 1.34.4zM278.35 151.58c-.68 0-1.3-.11-1.85-.34-.55-.22-1.03-.53-1.42-.91l.45-.52c.37.32.78.58 1.22.77.44.19 1 .29 1.67.29.69 0 1.22-.18 1.58-.53.36-.35.54-.77.54-1.24 0-.37-.11-.68-.33-.93-.22-.25-.49-.45-.83-.61-.34-.16-.68-.3-1.02-.43-.45-.16-.88-.34-1.31-.55s-.78-.47-1.05-.78c-.27-.32-.41-.72-.41-1.22 0-.66.24-1.22.74-1.69.49-.47 1.2-.7 2.13-.7a3.988 3.988 0 0 1 2.56.93l-.45.5c-.3-.21-.62-.38-.96-.52-.34-.14-.74-.2-1.18-.2-.7 0-1.21.17-1.54.5-.33.34-.49.71-.49 1.12 0 .34.09.61.28.83.19.22.44.4.75.55.32.15.65.29 1.01.43.47.17.93.36 1.38.56.45.2.82.47 1.11.8.29.34.44.79.44 1.38 0 .45-.12.86-.35 1.24-.24.38-.58.69-1.02.92-.46.23-1 .35-1.65.35zM285.8 151.5c-.87 0-1.46-.25-1.77-.74-.31-.5-.47-1.14-.47-1.94v-5.7h-1.4v-.63l1.42-.07.11-2.96h.71v2.96h2.59v.71h-2.59v5.75c0 .57.1 1.03.3 1.39.2.35.6.53 1.21.53.17 0 .35-.02.54-.06.19-.04.38-.11.58-.21l.26.6c-.52.24-1.02.37-1.49.37zM295.33 151.5c-.87 0-1.46-.25-1.77-.74-.31-.5-.47-1.14-.47-1.94v-5.7h-1.4v-.63l1.42-.07.11-2.96h.71v2.96h2.59v.71h-2.59v5.75c0 .57.1 1.03.3 1.39.2.35.6.53 1.21.53.17 0 .35-.02.54-.06.19-.04.38-.11.58-.21l.26.6c-.52.24-1.02.37-1.49.37zM298.7 151.36v-8.94h.71l.07 1.66h.06c.29-.55.64-1 1.07-1.35.43-.35.92-.53 1.46-.53.17 0 .33.01.47.04.14.02.28.07.43.15l-.22.71c-.12-.04-.24-.07-.35-.08-.11-.02-.25-.03-.43-.03-.4 0-.82.17-1.26.51-.44.34-.83.93-1.18 1.78v6.09h-.83zM306.17 151.58c-.71 0-1.32-.2-1.82-.6-.51-.4-.76-1.02-.76-1.86 0-.99.47-1.75 1.4-2.26.93-.51 2.39-.88 4.38-1.11.01-.46-.04-.9-.15-1.33-.11-.43-.32-.78-.62-1.07-.3-.29-.75-.43-1.35-.43-.6 0-1.14.12-1.64.34-.5.23-.9.45-1.21.66l-.37-.58c.32-.25.78-.5 1.37-.76.59-.26 1.24-.39 1.96-.39.71 0 1.27.16 1.68.47.41.31.7.72.88 1.24.18.52.27 1.1.27 1.74v5.72h-.71l-.07-1.15h-.06c-.46.36-.96.68-1.49.96-.55.27-1.11.41-1.69.41zm.15-.73c.51 0 1-.12 1.48-.36s1-.6 1.55-1.07v-3.02c-1.23.15-2.2.34-2.92.58-.72.24-1.24.53-1.55.87a1.8 1.8 0 0 0-.47 1.23c0 .65.19 1.1.57 1.37.39.27.83.4 1.34.4zM316.67 151.58c-.77 0-1.46-.18-2.08-.55-.61-.37-1.1-.9-1.45-1.6-.35-.7-.53-1.54-.53-2.52 0-1.01.19-1.86.57-2.56.38-.7.88-1.23 1.5-1.6.62-.37 1.29-.55 2.01-.55.62 0 1.14.1 1.55.31.41.21.77.47 1.08.79l-.45.5c-.27-.26-.59-.47-.94-.63-.35-.16-.76-.24-1.22-.24-.61 0-1.16.17-1.65.5-.49.34-.88.8-1.16 1.4-.29.6-.43 1.29-.43 2.09 0 .78.13 1.47.4 2.06.27.59.65 1.05 1.14 1.39.49.34 1.06.5 1.7.5.47 0 .92-.09 1.33-.28.42-.19.77-.42 1.05-.71l.43.5c-.37.36-.79.65-1.27.87-.47.22-1 .33-1.58.33zM322.11 140.26c-.2 0-.37-.07-.5-.2-.14-.14-.2-.32-.2-.56 0-.21.07-.38.2-.52.14-.14.3-.2.5-.2.21 0 .38.07.51.2.13.14.2.31.2.52 0 .24-.07.42-.2.56-.13.13-.3.2-.51.2zm-.39 11.1v-8.94h.82v8.94h-.82zM325.98 151.36v-8.94h.71l.07 1.38h.06c.46-.46.93-.84 1.42-1.14.49-.3 1.04-.46 1.65-.46.92 0 1.6.28 2.04.85s.66 1.42.66 2.58v5.73h-.82v-5.62c0-.96-.16-1.66-.47-2.11-.32-.45-.84-.68-1.57-.68-.53 0-1.02.14-1.45.42-.44.28-.93.7-1.47 1.26v6.74h-.83zM338.81 155.66c-1.13 0-2.02-.22-2.68-.67-.66-.45-.99-1.05-.99-1.81 0-.4.12-.78.35-1.15.24-.37.56-.71.97-1.01v-.07c-.22-.14-.41-.32-.56-.56-.15-.24-.22-.53-.22-.87 0-.4.11-.74.34-1.01.22-.28.43-.49.63-.62v-.07c-.27-.25-.53-.59-.76-1.01-.24-.43-.35-.91-.35-1.44 0-.62.14-1.17.42-1.64.28-.47.66-.84 1.14-1.11.48-.27 1.01-.4 1.59-.4.25 0 .47.02.67.07.2.04.37.1.5.16h3.04v.69h-2.09v.07c.29.22.52.52.71.88s.28.79.28 1.3c0 .61-.14 1.15-.41 1.62-.27.47-.65.84-1.12 1.12-.47.27-1 .41-1.58.41-.25 0-.51-.03-.77-.09-.27-.06-.51-.16-.72-.28-.2.16-.37.34-.51.54s-.21.45-.21.74c0 .32.12.6.35.83.24.23.69.34 1.36.34h1.92c1.01 0 1.75.16 2.23.49.48.33.72.85.72 1.55 0 .51-.17 1-.52 1.46-.35.47-.84.84-1.47 1.13-.66.26-1.41.41-2.26.41zm.09-.67c.67 0 1.25-.11 1.74-.34.49-.22.87-.51 1.14-.85.27-.34.41-.7.41-1.07 0-.5-.18-.85-.53-1.05-.35-.21-.87-.31-1.54-.31h-1.92c-.09 0-.24-.01-.45-.04-.21-.02-.43-.06-.67-.11-.41.27-.71.57-.89.9-.19.33-.28.65-.28.98 0 .56.26 1.01.78 1.36.53.35 1.27.53 2.21.53zm-.22-7.13c.41 0 .79-.11 1.14-.32.35-.21.64-.51.85-.88.21-.38.32-.82.32-1.31 0-.77-.23-1.37-.68-1.82-.45-.44-1-.66-1.63-.66-.63 0-1.18.22-1.64.66-.46.44-.69 1.05-.69 1.82 0 .5.11.93.33 1.31.22.38.5.67.86.88.35.21.73.32 1.14.32zM349.77 151.5c-.36 0-.63-.11-.82-.34-.19-.22-.28-.58-.28-1.08v-12.12h.82v12.23c0 .21.04.36.12.45.08.09.18.13.31.13.04 0 .08 0 .12-.01.04-.01.1-.02.18-.03l.15.65c-.16.09-.36.12-.6.12zM353.48 140.26c-.2 0-.37-.07-.5-.2-.14-.14-.21-.32-.21-.56 0-.21.07-.38.21-.52.14-.14.3-.2.5-.2.21 0 .38.07.51.2.13.14.2.31.2.52 0 .24-.06.42-.2.56-.13.13-.3.2-.51.2zm-.39 11.1v-8.94h.82v8.94h-.82zM360.85 151.58c-.42 0-.87-.1-1.34-.31-.47-.2-.92-.48-1.34-.83h-.04l-.09.91h-.69v-13.39h.82v3.87l-.04 1.75c.46-.38.95-.71 1.48-.99.53-.27 1.06-.41 1.61-.41 1.19 0 2.09.41 2.68 1.24s.89 1.93.89 3.32c0 1.01-.18 1.87-.55 2.59-.37.72-.85 1.27-1.44 1.66-.59.4-1.24.59-1.95.59zm-.04-.73c.61 0 1.15-.17 1.61-.52.47-.35.83-.83 1.1-1.44.27-.61.4-1.33.4-2.13 0-.73-.09-1.39-.28-1.96-.19-.58-.49-1.03-.9-1.37-.42-.34-.97-.5-1.65-.5-.45 0-.91.13-1.4.38-.48.25-.99.62-1.53 1.09v5.31c.5.42.97.72 1.43.89.47.17.88.25 1.22.25zM367.44 151.36v-8.94h.71l.07 1.66h.06c.29-.55.64-1 1.07-1.35.43-.35.92-.53 1.46-.53.17 0 .33.01.47.04.14.02.28.07.43.15l-.22.71c-.12-.04-.24-.07-.35-.08-.11-.02-.25-.03-.43-.03-.4 0-.82.17-1.26.51-.44.34-.84.93-1.18 1.78v6.09h-.83zM374.91 151.58c-.71 0-1.32-.2-1.82-.6-.51-.4-.76-1.02-.76-1.86 0-.99.47-1.75 1.4-2.26.93-.51 2.39-.88 4.38-1.11.01-.46-.04-.9-.15-1.33-.11-.43-.32-.78-.62-1.07-.3-.29-.75-.43-1.35-.43s-1.14.12-1.64.34c-.5.23-.9.45-1.21.66l-.37-.58c.32-.25.78-.5 1.37-.76.59-.26 1.24-.39 1.96-.39.71 0 1.27.16 1.68.47.41.31.7.72.88 1.24.18.52.27 1.1.27 1.74v5.72h-.71l-.07-1.15h-.06c-.46.36-.96.68-1.49.96-.55.27-1.11.41-1.69.41zm.15-.73c.51 0 1-.12 1.48-.36s1-.6 1.55-1.07v-3.02c-1.23.15-2.2.34-2.92.58-.72.24-1.23.53-1.55.87a1.8 1.8 0 0 0-.47 1.23c0 .65.19 1.1.57 1.37.38.27.83.4 1.34.4zM382.09 151.36v-8.94h.71l.07 1.66h.06c.29-.55.64-1 1.07-1.35.43-.35.92-.53 1.46-.53.17 0 .33.01.47.04.14.02.28.07.43.15l-.22.71c-.12-.04-.24-.07-.35-.08s-.25-.03-.43-.03c-.4 0-.82.17-1.26.51-.44.34-.84.93-1.18 1.78v6.09h-.83zM388.31 155.43c-.36 0-.66-.07-.91-.2l.22-.69c.22.09.45.13.69.13.55 0 1.01-.22 1.39-.67.38-.45.68-1.01.9-1.69l.24-.78-3.67-9.1h.89l2.16 5.62c.14.37.29.78.47 1.23.17.45.34.87.5 1.27h.07c.14-.4.28-.82.42-1.27.14-.45.28-.86.4-1.23l1.92-5.62h.84l-3.54 10.05c-.16.5-.38.97-.64 1.42-.27.45-.59.82-.98 1.11-.37.28-.83.42-1.37.42zM400.64 151.36v-8.23h-1.32v-.63l1.32-.07v-1.99c0-.88.19-1.55.58-2 .38-.45.93-.68 1.64-.68.45 0 .88.1 1.3.3l-.24.63c-.37-.15-.73-.22-1.06-.22-.47 0-.82.18-1.05.53-.23.35-.34.85-.34 1.5v1.94h2.07v.71h-2.07v8.23h-.83zM408.48 151.58c-.71 0-1.37-.18-1.97-.55-.61-.37-1.1-.9-1.47-1.6-.37-.7-.56-1.54-.56-2.52 0-1.01.19-1.86.56-2.56.37-.7.86-1.23 1.47-1.6.61-.37 1.27-.55 1.97-.55.72 0 1.38.18 1.99.55.61.37 1.1.9 1.47 1.6.37.7.56 1.55.56 2.56 0 .98-.19 1.82-.56 2.52-.37.7-.86 1.24-1.47 1.6-.61.37-1.27.55-1.99.55zm0-.73c.61 0 1.15-.17 1.62-.5.47-.34.85-.8 1.13-1.39s.42-1.28.42-2.06c0-.79-.14-1.49-.42-2.09-.28-.6-.65-1.06-1.13-1.4-.47-.34-1.01-.5-1.62-.5-.6 0-1.13.17-1.61.5-.48.34-.85.8-1.13 1.4-.27.6-.41 1.29-.41 2.09 0 .78.14 1.47.41 2.06s.65 1.05 1.13 1.39c.47.34 1.01.5 1.61.5zM415.18 151.36v-8.94h.71l.07 1.66h.06c.29-.55.64-1 1.07-1.35.43-.35.92-.53 1.46-.53.17 0 .33.01.47.04.14.02.28.07.43.15l-.22.71c-.12-.04-.24-.07-.35-.08-.11-.02-.25-.03-.43-.03-.4 0-.82.17-1.26.51-.44.34-.84.93-1.18 1.78v6.09h-.83zM424.9 151.36v-12.27h3.52c1.22 0 2.19.25 2.92.74s1.1 1.33 1.1 2.5c0 .98-.28 1.75-.85 2.31-.56.56-1.33.9-2.3 1.02l3.39 5.7h-.99l-3.33-5.64h-2.61v5.64h-.85zm.85-6.35h2.44c1.08 0 1.91-.22 2.5-.66.58-.44.87-1.11.87-2.02 0-.92-.29-1.57-.87-1.95-.58-.38-1.42-.57-2.5-.57h-2.44v5.2zM437.5 151.58c-.92 0-1.6-.28-2.04-.85-.44-.56-.66-1.42-.66-2.58v-5.73h.82v5.62c0 .94.16 1.64.47 2.1.32.46.83.69 1.55.69.53 0 1.02-.15 1.45-.44.43-.29.91-.75 1.43-1.39v-6.59h.82v8.94h-.69l-.09-1.49h-.04c-.43.51-.89.92-1.38 1.24-.46.32-1.02.48-1.64.48zM446.94 151.58c-.68 0-1.3-.11-1.85-.34-.55-.22-1.03-.53-1.42-.91l.45-.52c.37.32.78.58 1.22.77.44.19 1 .29 1.67.29.7 0 1.22-.18 1.58-.53.36-.35.54-.77.54-1.24 0-.37-.11-.68-.33-.93-.22-.25-.49-.45-.83-.61-.34-.16-.68-.3-1.02-.43-.45-.16-.88-.34-1.31-.55-.43-.2-.78-.47-1.05-.78s-.41-.72-.41-1.22c0-.66.24-1.22.74-1.69.49-.47 1.2-.7 2.13-.7a3.988 3.988 0 0 1 2.56.93l-.45.5c-.3-.21-.62-.38-.96-.52-.34-.14-.74-.2-1.18-.2-.7 0-1.21.17-1.54.5-.33.34-.49.71-.49 1.12 0 .34.09.61.28.83.19.22.44.4.75.55.32.15.65.29 1.01.43.47.17.93.36 1.38.56.45.2.82.47 1.11.8.29.34.44.79.44 1.38 0 .45-.12.86-.35 1.24-.24.38-.58.69-1.02.92-.46.23-1 .35-1.65.35zM454.39 151.5c-.87 0-1.46-.25-1.77-.74-.31-.5-.47-1.14-.47-1.94v-5.7h-1.4v-.63l1.42-.07.11-2.96h.71v2.96h2.59v.71h-2.59v5.75c0 .57.1 1.03.3 1.39.2.35.6.53 1.21.53.17 0 .35-.02.54-.06s.38-.11.58-.21l.26.6c-.52.24-1.02.37-1.49.37z"/></g></svg>