<svg xmlns="http://www.w3.org/2000/svg" viewBox="0 0 640 180" style="enable-background:new 0 0 640 180" xml:space="preserve"><path d="M207 113.1V89.9h1.8l.2 3.6h.1c1-1.2 2.2-2.2 3.5-3 1.3-.8 2.6-1.2 3.8-1.2 1.9 0 3.3.4 4.3 1.3s1.7 2 2.1 3.4c1.3-1.5 2.6-2.6 3.9-3.4 1.3-.9 2.6-1.3 3.9-1.3 4.6 0 7 3 7 8.9v14.9h-2.2V98.5c0-4.8-1.7-7.2-5.2-7.2-2.1 0-4.4 1.5-7 4.3v17.5h-2.1V98.5c0-2.5-.4-4.3-1.3-5.5s-2.2-1.8-4-1.8c-2.1 0-4.4 1.5-7 4.3V113H207zm40.3-28.8c-.5 0-.9-.2-1.3-.5-.4-.4-.5-.8-.5-1.5 0-.5.2-1 .5-1.4.4-.4.8-.5 1.3-.5s1 .2 1.3.5.5.8.5 1.4c0 .6-.2 1.1-.5 1.5-.3.3-.8.5-1.3.5zm-1 28.8V89.9h2.1v23.2h-2.1zm11 0V89.9h1.8l.2 3.6h.1c1.2-1.2 2.4-2.2 3.7-3 1.3-.8 2.7-1.2 4.3-1.2 2.4 0 4.1.7 5.3 2.2 1.1 1.5 1.7 3.7 1.7 6.7v14.9h-2.1V98.5c0-2.5-.4-4.3-1.2-5.5-.8-1.2-2.2-1.8-4.1-1.8-1.4 0-2.6.4-3.8 1.1-1.1.7-2.4 1.8-3.8 3.3v17.5h-2.1zM284 84.3c-.5 0-.9-.2-1.3-.5s-.5-.8-.5-1.5c0-.5.2-1 .5-1.4s.8-.5 1.3-.5 1 .2 1.3.5c.3.4.5.8.5 1.4 0 .6-.2 1.1-.5 1.5-.3.3-.7.5-1.3.5zm-1 28.8V89.9h2.1v23.2H283zm17.4.4c-2.3 0-3.8-.6-4.6-1.9-.8-1.3-1.2-3-1.2-5V91.7H291v-1.6l3.7-.2.3-7.7h1.8v7.7h6.7v1.8h-6.7v14.9c0 1.5.3 2.7.8 3.6.5.9 1.6 1.4 3.1 1.4 1 0 2-.3 2.9-.7l.7 1.5c-1.4.7-2.7 1.1-3.9 1.1zm8.7-.4V89.9h1.8l.2 4.3h.1c.7-1.4 1.7-2.6 2.8-3.5 1.1-.9 2.4-1.4 3.8-1.4.5 0 .9 0 1.2.1s.7.2 1.1.4l-.6 1.8c-.3-.1-.6-.2-.9-.2-.3-.1-.7-.1-1.1-.1-1 0-2.1.4-3.3 1.3-1.1.9-2.2 2.4-3.1 4.6V113l-2 .1zm19.4.6c-1.8 0-3.4-.5-4.7-1.5-1.3-1-2-2.6-2-4.8 0-2.6 1.2-4.5 3.6-5.9 2.4-1.3 6.2-2.3 11.3-2.9 0-1.2-.1-2.3-.4-3.4-.3-1.1-.8-2-1.6-2.8s-2-1.1-3.5-1.1-3 .3-4.2.9c-1.3.6-2.3 1.2-3.1 1.7l-1-1.5c.8-.6 2-1.3 3.5-2s3.2-1 5.1-1c1.8 0 3.3.4 4.3 1.2s1.8 1.9 2.3 3.2c.5 1.3.7 2.8.7 4.5v14.8H337l-.2-3h-.1c-1.2.9-2.5 1.8-3.9 2.5-1.3.7-2.8 1.1-4.3 1.1zm.4-1.9c1.3 0 2.6-.3 3.8-.9 1.2-.6 2.6-1.6 4-2.8v-7.8c-3.2.4-5.7.9-7.6 1.5-1.9.6-3.2 1.4-4 2.3-.8.9-1.2 2-1.2 3.2 0 1.7.5 2.9 1.5 3.5 1 .6 2.2 1 3.5 1zm26.8 1.9c-2 0-3.8-.5-5.4-1.4s-2.9-2.3-3.8-4.2c-.9-1.8-1.4-4-1.4-6.5 0-2.6.5-4.8 1.5-6.6 1-1.8 2.3-3.2 3.9-4.2 1.6-.9 3.3-1.4 5.2-1.4 1.6 0 2.9.3 4 .8s2 1.2 2.8 2.1l-1.2 1.3c-.7-.7-1.5-1.2-2.4-1.6-.9-.4-2-.6-3.2-.6-1.6 0-3 .4-4.3 1.3-1.3.9-2.3 2.1-3 3.6-.7 1.5-1.1 3.3-1.1 5.4 0 2 .3 3.8 1 5.3s1.7 2.7 2.9 3.6c1.3.9 2.7 1.3 4.4 1.3 1.2 0 2.4-.2 3.5-.7 1.1-.5 2-1.1 2.7-1.8l1.1 1.3c-1 .9-2.1 1.7-3.3 2.3-1 .4-2.4.7-3.9.7zm21.1 0c-2 0-3.8-.5-5.4-1.5-1.6-1-2.9-2.4-3.9-4.2s-1.5-4-1.5-6.5.5-4.7 1.5-6.5c1-1.8 2.2-3.2 3.8-4.2 1.5-1 3.2-1.5 4.9-1.5 2.8 0 4.9.9 6.5 2.8s2.4 4.5 2.4 7.9v.9c0 .3-.1.6-.1.9h-16.7c.1 2.1.5 3.8 1.3 5.3s1.8 2.6 3.1 3.4c1.3.8 2.8 1.2 4.4 1.2 1.3 0 2.4-.2 3.5-.5 1-.3 2-.8 2.8-1.4l.9 1.5c-.9.6-1.9 1.1-3 1.6-1.4.5-2.8.8-4.5.8zm-.6-22.6c-1.2 0-2.4.3-3.5 1-1.1.6-2.1 1.6-2.9 2.9-.8 1.3-1.3 3-1.5 5H383c0-3-.6-5.2-1.8-6.6-1.2-1.5-2.9-2.3-5-2.3z" style="fill:#343a40"/><path d="M402.5 74.2H434v13.4h-31.5V74.2z" style="fill:#3bc9db"/><path d="M206 53.3h228v13.4H206V53.3z" style="fill:#ff922b"/><path d="M207 143.1v-10.3h5.6v.6h-4.9v3.9h4.1v.6h-4.1v4.5h5.1v.6l-5.8.1zm6.4 0 2.5-3.9-2.3-3.6h.8l1.2 1.9c.1.2.3.4.4.6.1.2.3.4.4.6h.1c.1-.2.3-.4.4-.6.1-.2.2-.4.4-.6l1.2-1.9h.7l-2.3 3.6 2.5 3.9h-.8l-1.3-2c-.1-.2-.3-.5-.4-.7-.2-.2-.3-.5-.5-.7h-.1c-.1.2-.3.4-.4.7-.1.2-.3.5-.4.7l-1.3 2h-.8zm9.3.1c-.7 0-1.2-.2-1.5-.6-.3-.4-.4-1-.4-1.6v-4.8h-1.2v-.5l1.2-.1.1-2.5h.6v2.5h2.2v.6h-2.2v4.8c0 .5.1.9.3 1.2.2.3.5.4 1 .4.1 0 .3 0 .5-.1.2 0 .3-.1.5-.2l.2.5c-.5.3-.9.4-1.3.4zm2.8-.1v-7.5h.6l.1 1.4h.1c.2-.5.5-.8.9-1.1.4-.3.8-.4 1.2-.4h.4c.1 0 .2.1.4.1l-.2.6c-.1 0-.2-.1-.3-.1h-.4c-.3 0-.7.1-1.1.4-.4.3-.7.8-1 1.5v5.1h-.7zm7.7.2c-.6 0-1.2-.2-1.7-.5s-.9-.8-1.3-1.4c-.3-.6-.5-1.3-.5-2.1s.2-1.5.5-2.1c.3-.6.7-1 1.2-1.4.5-.3 1-.5 1.6-.5.9 0 1.6.3 2.1.9.5.6.8 1.5.8 2.6v.6h-5.4c0 .7.2 1.2.4 1.7.3.5.6.8 1 1.1.4.3.9.4 1.4.4.4 0 .8-.1 1.1-.2.3-.1.6-.3.9-.4l.3.5c-.3.2-.6.4-1 .5-.4.2-.9.3-1.4.3zm-.2-7.3c-.4 0-.8.1-1.1.3-.4.2-.7.5-.9.9-.3.4-.4 1-.5 1.6h4.8c0-1-.2-1.7-.6-2.1-.5-.5-1-.7-1.7-.7zm4.9 7.1v-7.5h.6l.1 1.2h.1c.3-.4.7-.7 1.1-1 .4-.3.8-.4 1.2-.4.6 0 1.1.1 1.4.4.3.3.6.7.7 1.1.4-.5.8-.8 1.3-1.1.4-.3.8-.4 1.3-.4 1.5 0 2.2 1 2.2 2.9v4.8h-.7v-4.7c0-1.6-.6-2.3-1.7-2.3-.7 0-1.4.5-2.2 1.4v5.7h-.7v-4.7c0-.8-.1-1.4-.4-1.8-.3-.4-.7-.6-1.3-.6-.7 0-1.4.5-2.2 1.4v5.7l-.8-.1zm15.5.2c-.6 0-1.2-.2-1.7-.5s-.9-.8-1.3-1.4c-.3-.6-.5-1.3-.5-2.1s.2-1.5.5-2.1c.3-.6.7-1 1.2-1.4.5-.3 1-.5 1.6-.5.9 0 1.6.3 2.1.9.5.6.8 1.5.8 2.6v.6h-5.4c0 .7.2 1.2.4 1.7.3.5.6.8 1 1.1.4.3.9.4 1.4.4.4 0 .8-.1 1.1-.2.3-.1.6-.3.9-.4l.3.5c-.3.2-.6.4-1 .5-.4.2-.8.3-1.4.3zm-.2-7.3c-.4 0-.8.1-1.1.3-.4.2-.7.5-.9.9-.3.4-.4 1-.5 1.6h4.8c0-1-.2-1.7-.6-2.1-.5-.5-1-.7-1.7-.7zm5.8 7.2c-.3 0-.5-.1-.7-.3-.2-.2-.2-.5-.2-.9v-10.2h.7v10.3c0 .2 0 .3.1.4.1.1.2.1.3.1H259.5l.1.5c-.2.1-.3.1-.6.1zm2.5 3.3c-.3 0-.6-.1-.8-.2l.2-.6c.2.1.4.1.6.1.5 0 .8-.2 1.2-.6.3-.4.6-.8.8-1.4l.2-.7-3.1-7.6h.7l1.8 4.7c.1.3.2.7.4 1 .1.4.3.7.4 1.1h.1c.1-.3.2-.7.4-1.1s.2-.7.3-1l1.6-4.7h.7l-3 8.4c-.1.4-.3.8-.5 1.2-.2.4-.5.7-.8.9-.3.4-.7.5-1.2.5zm10.4-3.4v-6.9h-1.1v-.5l1.1-.1v-1.7c0-.7.2-1.3.5-1.7.3-.4.8-.6 1.4-.6.4 0 .7.1 1.1.3l-.2.5c-.3-.1-.6-.2-.9-.2-.4 0-.7.2-.9.4-.2.3-.3.7-.3 1.3v1.6h1.7v.6h-1.7v6.9l-.7.1zm5.3.2c-.6 0-1.1-.2-1.5-.5-.4-.3-.6-.9-.6-1.6 0-.8.4-1.5 1.2-1.9.8-.4 2-.7 3.7-.9 0-.4 0-.8-.1-1.1-.1-.4-.3-.7-.5-.9-.3-.2-.6-.4-1.1-.4-.5 0-1 .1-1.4.3-.4.2-.8.4-1 .6l-.3-.5c.3-.2.7-.4 1.1-.6.5-.2 1-.3 1.6-.3.6 0 1.1.1 1.4.4.3.3.6.6.7 1 .2.4.2.9.2 1.5v4.8h-.6l-.1-1h-.1c-.4.3-.8.6-1.3.8-.3.2-.8.3-1.3.3zm.1-.6c.4 0 .8-.1 1.2-.3s.8-.5 1.3-.9V139c-1 .1-1.8.3-2.5.5-.6.2-1 .4-1.3.7-.3.3-.4.7-.4 1 0 .5.2.9.5 1.1.4.3.8.4 1.2.4zm7.7.6c-.6 0-1.1-.1-1.6-.3-.5-.2-.9-.4-1.2-.8l.4-.4c.3.3.7.5 1 .6.4.2.8.2 1.4.2.6 0 1-.2 1.3-.4.3-.3.5-.6.5-1 0-.3-.1-.6-.3-.8-.2-.2-.4-.4-.7-.5-.3-.1-.6-.3-.9-.4-.4-.1-.7-.3-1.1-.5s-.7-.4-.9-.7c-.2-.3-.3-.6-.3-1 0-.6.2-1 .6-1.4.4-.4 1-.6 1.8-.6s1.5.3 2.1.8l-.4.4c-.3-.2-.5-.3-.8-.4-.3-.1-.6-.2-1-.2-.6 0-1 .1-1.3.4-.3.3-.4.6-.4.9 0 .3.1.5.2.7.2.2.4.3.6.5.3.1.5.2.8.4.4.1.8.3 1.2.5.4.2.7.4.9.7.2.3.4.7.4 1.2 0 .4-.1.7-.3 1-.2.3-.5.6-.9.8-.1.2-.5.3-1.1.3zm6.3-.1c-.7 0-1.2-.2-1.5-.6-.3-.4-.4-1-.4-1.6v-4.8h-1.2v-.5l1.2-.1.1-2.5h.6v2.5h2.2v.6h-2.2v4.8c0 .5.1.9.3 1.2.2.3.5.4 1 .4.1 0 .3 0 .5-.1.2 0 .3-.1.5-.2l.2.5c-.5.3-.9.4-1.3.4zm8 0c-.7 0-1.2-.2-1.5-.6-.3-.4-.4-1-.4-1.6v-4.8h-1.2v-.5l1.2-.1.1-2.5h.6v2.5h2.2v.6h-2.2v4.8c0 .5.1.9.3 1.2.2.3.5.4 1 .4.1 0 .3 0 .5-.1.2 0 .3-.1.5-.2l.2.5c-.5.3-.9.4-1.3.4zm2.8-.1v-7.5h.6l.1 1.4h.1c.2-.5.5-.8.9-1.1.4-.3.8-.4 1.2-.4h.4c.1 0 .2.1.4.1l-.2.6c-.1 0-.2-.1-.3-.1h-.4c-.3 0-.7.1-1.1.4-.4.3-.7.8-1 1.5v5.1h-.7zm6.3.2c-.6 0-1.1-.2-1.5-.5-.4-.3-.6-.9-.6-1.6 0-.8.4-1.5 1.2-1.9.8-.4 2-.7 3.7-.9 0-.4 0-.8-.1-1.1-.1-.4-.3-.7-.5-.9-.3-.2-.6-.4-1.1-.4-.5 0-1 .1-1.4.3-.4.2-.8.4-1 .6l-.3-.5c.3-.2.7-.4 1.1-.6s1-.3 1.6-.3c.6 0 1.1.1 1.4.4.3.3.6.6.7 1s.2.9.2 1.5v4.8h-.6l-.1-1h-.1c-.4.3-.8.6-1.3.8-.3.2-.8.3-1.3.3zm.1-.6c.4 0 .8-.1 1.2-.3s.8-.5 1.3-.9V139c-1 .1-1.8.3-2.5.5s-1 .4-1.3.7c-.3.3-.4.7-.4 1 0 .5.2.9.5 1.1.4.3.8.4 1.2.4zm8.7.6c-.6 0-1.2-.2-1.7-.5s-.9-.8-1.2-1.3c-.3-.6-.4-1.3-.4-2.1s.2-1.6.5-2.1c.3-.6.7-1 1.3-1.3.5-.3 1.1-.5 1.7-.5.5 0 1 .1 1.3.3.3.2.6.4.9.7l-.4.4c-.2-.2-.5-.4-.8-.5s-.6-.2-1-.2c-.5 0-1 .1-1.4.4-.4.3-.7.7-1 1.2-.2.5-.4 1.1-.4 1.8s.1 1.2.3 1.7c.2.5.5.9 1 1.2s.9.4 1.4.4c.4 0 .8-.1 1.1-.2.4-.2.6-.4.9-.6l.4.4c-.3.3-.7.5-1.1.7-.5 0-.9.1-1.4.1zm4.6-9.5c-.2 0-.3-.1-.4-.2-.1-.1-.2-.3-.2-.5s.1-.3.2-.4c.1-.1.3-.2.4-.2.2 0 .3.1.4.2.1.1.2.3.2.4 0 .2-.1.4-.2.5-.1.1-.3.2-.4.2zm-.4 9.3v-7.5h.7v7.5h-.7zm3.6 0v-7.5h.6l.1 1.2h.1c.4-.4.8-.7 1.2-1 .4-.3.9-.4 1.4-.4.8 0 1.3.2 1.7.7.4.5.6 1.2.6 2.2v4.8h-.7v-4.7c0-.8-.1-1.4-.4-1.8-.3-.4-.7-.6-1.3-.6-.4 0-.9.1-1.2.4-.4.2-.8.6-1.2 1.1v5.7l-.9-.1zm10.8 3.6c-.9 0-1.7-.2-2.2-.6-.6-.4-.8-.9-.8-1.5 0-.3.1-.7.3-1 .2-.3.5-.6.8-.8v-.1c-.2-.1-.3-.3-.5-.5-.1-.2-.2-.4-.2-.7 0-.3.1-.6.3-.8l.5-.5v-.1c-.2-.2-.4-.5-.6-.8-.2-.4-.3-.8-.3-1.2 0-.5.1-1 .4-1.4s.6-.7 1-.9c.4-.2.8-.3 1.3-.3.2 0 .4 0 .6.1.2 0 .3.1.4.1h2.6v.6h-1.8v.1c.2.2.4.4.6.7s.2.7.2 1.1c0 .5-.1 1-.3 1.4s-.5.7-.9.9c-.4.2-.8.3-1.3.3-.2 0-.4 0-.6-.1-.2-.1-.4-.1-.6-.2-.2.1-.3.3-.4.5-.1.2-.2.4-.2.6 0 .3.1.5.3.7.2.2.6.3 1.1.3h1.6c.8 0 1.5.1 1.9.4.4.3.6.7.6 1.3 0 .4-.1.8-.4 1.2-.3.4-.7.7-1.2.9-.9.2-1.5.3-2.2.3zm.1-.6c.6 0 1-.1 1.5-.3.4-.2.7-.4 1-.7.2-.3.3-.6.3-.9 0-.4-.2-.7-.4-.9-.3-.2-.7-.3-1.3-.3h-2c-.2 0-.4-.1-.6-.1-.3.2-.6.5-.7.8-.2.3-.2.5-.2.8 0 .5.2.8.7 1.1.3.4.9.5 1.7.5zm-.2-5.9c.3 0 .7-.1 1-.3.3-.2.5-.4.7-.7.2-.3.3-.7.3-1.1 0-.6-.2-1.1-.6-1.5-.4-.4-.8-.6-1.4-.6-.5 0-1 .2-1.4.6-.4.4-.6.9-.6 1.5 0 .4.1.8.3 1.1.2.3.4.6.7.7.3.2.6.3 1 .3zm9.3 3c-.3 0-.5-.1-.7-.3-.2-.2-.2-.5-.2-.9v-10.2h.7v10.3c0 .2 0 .3.1.4.1.1.2.1.3.1H345.5l.1.5c-.2.1-.4.1-.6.1zm3.1-9.4c-.2 0-.3-.1-.4-.2-.1-.1-.2-.3-.2-.5s.1-.3.2-.4c.1-.1.3-.2.4-.2.2 0 .3.1.4.2.1.1.2.3.2.4 0 .2-.1.4-.2.5-.1.1-.2.2-.4.2zm-.3 9.3v-7.5h.7v7.5h-.7zm6.5.2c-.4 0-.7-.1-1.1-.3-.4-.2-.8-.4-1.1-.7l-.1.8h-.6v-11.2h.7v4.7c.4-.3.8-.6 1.2-.8.4-.2.9-.3 1.4-.3 1 0 1.8.3 2.2 1 .5.7.7 1.6.7 2.8 0 .8-.2 1.6-.5 2.2-.3.6-.7 1.1-1.2 1.4-.5.2-1 .4-1.6.4zm-.1-.6c.5 0 1-.1 1.4-.4.4-.3.7-.7.9-1.2s.3-1.1.3-1.8c0-.6-.1-1.2-.2-1.6-.2-.5-.4-.9-.8-1.1-.4-.3-.8-.4-1.4-.4-.4 0-.8.1-1.2.3-.4.2-.8.5-1.3.9v4.5c.4.4.8.6 1.2.7.5 0 .9.1 1.1.1zm5.6.4v-7.5h.6l.1 1.4h.1c.2-.5.5-.8.9-1.1.4-.3.8-.4 1.2-.4h.4c.1 0 .2.1.4.1l-.2.6c-.1 0-.2-.1-.3-.1h-.4c-.3 0-.7.1-1.1.4-.4.3-.7.8-1 1.5v5.1h-.7zm6.3.2c-.6 0-1.1-.2-1.5-.5-.4-.3-.6-.9-.6-1.6 0-.8.4-1.5 1.2-1.9.8-.4 2-.7 3.7-.9 0-.4 0-.8-.1-1.1-.1-.4-.3-.7-.5-.9-.3-.2-.6-.4-1.1-.4-.5 0-1 .1-1.4.3-.4.2-.8.4-1 .6l-.3-.5c.3-.2.7-.4 1.1-.6.5-.2 1-.3 1.6-.3.6 0 1.1.1 1.4.4s.6.6.7 1c.2.4.2.9.2 1.5v4.8h-.6l-.1-1h-.1c-.4.3-.8.6-1.3.8-.4.2-.8.3-1.3.3zm.1-.6c.4 0 .8-.1 1.2-.3.4-.2.8-.5 1.3-.9V139c-1 .1-1.8.3-2.5.5s-1 .4-1.3.7c-.3.3-.4.7-.4 1 0 .5.2.9.5 1.1s.8.4 1.2.4zm5.9.4v-7.5h.6l.1 1.4h.1c.2-.5.5-.8.9-1.1.4-.3.8-.4 1.2-.4h.4c.1 0 .2.1.4.1l-.2.6c-.1 0-.2-.1-.3-.1h-.4c-.3 0-.7.1-1.1.4-.4.3-.7.8-1 1.5v5.1h-.7zm5.2 3.4c-.3 0-.6-.1-.8-.2l.2-.6c.2.1.4.1.6.1.5 0 .8-.2 1.2-.6.3-.4.6-.8.8-1.4l.2-.7-3.1-7.6h.7l1.8 4.7c.1.3.2.7.4 1 .1.4.3.7.4 1.1h.1c.1-.3.2-.7.4-1.1s.2-.7.3-1l1.6-4.7h.7l-3 8.4c-.1.4-.3.8-.5 1.2-.2.4-.5.7-.8.9-.3.4-.7.5-1.2.5zm10.4-3.4v-6.9h-1.1v-.5l1.1-.1v-1.7c0-.7.2-1.3.5-1.7.3-.4.8-.6 1.4-.6.4 0 .7.1 1.1.3l-.2.5c-.3-.1-.6-.2-.9-.2-.4 0-.7.2-.9.4-.2.3-.3.7-.3 1.3v1.6h1.7v.6h-1.7v6.9l-.7.1zm6.6.2c-.6 0-1.1-.2-1.7-.5-.5-.3-.9-.8-1.2-1.3-.3-.6-.5-1.3-.5-2.1s.2-1.6.5-2.1c.3-.6.7-1 1.2-1.3.5-.3 1.1-.5 1.7-.5.6 0 1.2.2 1.7.5s.9.8 1.2 1.3c.3.6.5 1.3.5 2.1s-.2 1.5-.5 2.1c-.3.6-.7 1-1.2 1.3-.6.3-1.1.5-1.7.5zm0-.6c.5 0 1-.1 1.4-.4.4-.3.7-.7.9-1.2.2-.5.4-1.1.4-1.7 0-.7-.1-1.3-.4-1.8-.2-.5-.5-.9-.9-1.2-.4-.3-.8-.4-1.4-.4-.5 0-.9.1-1.4.4-.4.3-.7.7-.9 1.2-.2.5-.3 1.1-.3 1.8s.1 1.2.3 1.7c.2.5.5.9.9 1.2.4.2.8.4 1.4.4zm5.6.4v-7.5h.6l.1 1.4h.1c.2-.5.5-.8.9-1.1.4-.3.8-.4 1.2-.4h.4c.1 0 .2.1.4.1l-.2.6c-.1 0-.2-.1-.3-.1h-.4c-.3 0-.7.1-1.1.4-.4.3-.7.8-1 1.5v5.1h-.7zm8.1 0v-10.3h3c1 0 1.8.2 2.5.6.6.4.9 1.1.9 2.1 0 .8-.2 1.5-.7 1.9-.5.5-1.1.8-1.9.9l2.8 4.8h-.8l-2.8-4.7h-2.2v4.7h-.8zm.7-5.3h2c.9 0 1.6-.2 2.1-.6.5-.4.7-.9.7-1.7 0-.8-.2-1.3-.7-1.6s-1.2-.5-2.1-.5h-2v4.4zm9.9 5.5c-.8 0-1.3-.2-1.7-.7-.4-.5-.6-1.2-.6-2.2v-4.8h.7v4.7c0 .8.1 1.4.4 1.8.3.4.7.6 1.3.6.4 0 .9-.1 1.2-.4.4-.2.8-.6 1.2-1.2v-5.5h.7v7.5h-.6l-.1-1.3c-.4.4-.7.8-1.2 1-.3.4-.8.5-1.3.5zm7.9 0c-.6 0-1.1-.1-1.6-.3-.5-.2-.9-.4-1.2-.8l.4-.4c.3.3.7.5 1 .6.4.2.8.2 1.4.2.6 0 1-.2 1.3-.4.3-.3.5-.6.5-1 0-.3-.1-.6-.3-.8-.2-.2-.4-.4-.7-.5-.3-.1-.6-.3-.9-.4-.4-.1-.7-.3-1.1-.5-.4-.2-.7-.4-.9-.7-.2-.3-.3-.6-.3-1 0-.6.2-1 .6-1.4.4-.4 1-.6 1.8-.6s1.5.3 2.1.8l-.4.4c-.3-.2-.5-.3-.8-.4-.3-.1-.6-.2-1-.2-.6 0-1 .1-1.3.4-.3.3-.4.6-.4.9 0 .3.1.5.2.7s.4.3.6.5c.3.1.5.2.8.4.4.1.8.3 1.2.5.4.2.7.4.9.7.2.3.4.7.4 1.2 0 .4-.1.7-.3 1-.2.3-.5.6-.9.8-.1.2-.5.3-1.1.3zm6.3-.1c-.7 0-1.2-.2-1.5-.6-.3-.4-.4-1-.4-1.6v-4.8h-1.2v-.5l1.2-.1.1-2.5h.6v2.5h2.2v.6h-2.2v4.8c0 .5.1.9.3 1.2.2.3.5.4 1 .4.1 0 .3 0 .5-.1.2 0 .3-.1.5-.2l.2.5c-.5.3-.9.4-1.3.4z" style="fill:#495057"/></svg>