<svg xmlns="http://www.w3.org/2000/svg" viewBox="0 0 640 180" style="enable-background:new 0 0 640 180" xml:space="preserve"><path d="M185.3 115.6V87.9h2.2l.2 4.3h.2c1.2-1.4 2.6-2.6 4.1-3.5 1.5-.9 3-1.4 4.6-1.4 2.2 0 3.9.5 5.1 1.6 1.2 1 2 2.4 2.5 4.1 1.6-1.7 3.1-3.1 4.7-4.1 1.6-1 3.1-1.5 4.7-1.5 5.5 0 8.3 3.5 8.3 10.6v17.7h-2.6V98.2c0-5.8-2.1-8.6-6.2-8.6-2.5 0-5.2 1.7-8.3 5.2v20.8h-2.5V98.2c0-3-.5-5.1-1.5-6.5s-2.6-2.1-4.7-2.1c-2.5 0-5.2 1.7-8.3 5.2v20.8h-2.5zm48-34.3c-.6 0-1.1-.2-1.6-.6-.4-.4-.6-1-.6-1.7s.2-1.2.6-1.6c.4-.4.9-.6 1.6-.6.7 0 1.2.2 1.6.6.4.4.6 1 .6 1.6 0 .7-.2 1.3-.6 1.7-.5.4-1 .6-1.6.6zm-1.3 34.3V87.9h2.5v27.6H232zm13.2 0V87.9h2.2l.2 4.3h.2c1.4-1.4 2.9-2.6 4.4-3.5 1.5-.9 3.2-1.4 5.1-1.4 2.8 0 4.9.9 6.3 2.6 1.4 1.8 2 4.4 2 8v17.7h-2.5V98.2c0-3-.5-5.1-1.5-6.5s-2.6-2.1-4.9-2.1c-1.7 0-3.2.4-4.5 1.3-1.3.9-2.9 2.2-4.6 3.9v20.8h-2.4zm31.9-34.3c-.6 0-1.1-.2-1.6-.6-.4-.4-.6-1-.6-1.7s.2-1.2.6-1.6c.4-.4.9-.6 1.6-.6.7 0 1.2.2 1.6.6.4.4.6 1 .6 1.6 0 .7-.2 1.3-.6 1.7-.4.4-1 .6-1.6.6zm-1.2 34.3V87.9h2.5v27.6h-2.5zm20.7.5c-2.7 0-4.5-.8-5.5-2.3-1-1.5-1.4-3.5-1.4-6V90.1h-4.3v-2l4.4-.2.4-9.2h2.2v9.2h8v2.2h-8v17.8c0 1.8.3 3.2.9 4.3.6 1.1 1.9 1.6 3.7 1.6 1.2 0 2.4-.3 3.5-.9l.8 1.8c-1.7 1-3.2 1.4-4.7 1.4zm10.4-.5V87.9h2.2l.2 5.1h.2c.9-1.7 2-3.1 3.3-4.2 1.3-1.1 2.8-1.6 4.5-1.6.5 0 1 0 1.4.1s.9.2 1.3.5l-.7 2.2c-.4-.1-.8-.2-1.1-.3-.4-.1-.8-.1-1.3-.1-1.2 0-2.5.5-3.9 1.6s-2.6 2.9-3.7 5.5v18.8l-2.4.1zm23.1.7c-2.2 0-4.1-.6-5.6-1.8-1.6-1.2-2.4-3.2-2.4-5.8 0-3.1 1.4-5.4 4.3-7 2.9-1.6 7.4-2.7 13.5-3.4 0-1.4-.1-2.8-.5-4.1-.4-1.3-1-2.4-1.9-3.3-.9-.9-2.3-1.3-4.2-1.3-1.8 0-3.5.4-5.1 1.1-1.5.7-2.8 1.4-3.7 2l-1.2-1.8c1-.8 2.4-1.6 4.2-2.4 1.8-.8 3.9-1.2 6.1-1.2 2.2 0 3.9.5 5.2 1.4 1.3 1 2.2 2.2 2.7 3.8.6 1.6.8 3.4.8 5.4v17.7h-2.2l-.2-3.6h-.2c-1.4 1.1-3 2.1-4.6 3-1.4.9-3.2 1.3-5 1.3zm.5-2.3c1.6 0 3.1-.4 4.6-1.1 1.5-.8 3.1-1.9 4.8-3.3v-9.3c-3.8.5-6.8 1.1-9 1.8s-3.8 1.6-4.8 2.7-1.4 2.3-1.4 3.8c0 2 .6 3.4 1.8 4.2 1 .8 2.4 1.2 4 1.2zm32 2.3c-2.4 0-4.5-.6-6.4-1.7-1.9-1.1-3.4-2.8-4.5-5s-1.6-4.8-1.6-7.8c0-3.1.6-5.7 1.8-7.9 1.2-2.2 2.7-3.8 4.6-5s4-1.7 6.2-1.7c1.9 0 3.5.3 4.8 1 1.3.6 2.4 1.5 3.3 2.5l-1.4 1.6c-.8-.8-1.8-1.5-2.9-2-1.1-.5-2.4-.8-3.8-.8-1.9 0-3.6.5-5.1 1.6-1.5 1-2.7 2.5-3.6 4.3-.9 1.8-1.3 4-1.3 6.5 0 2.4.4 4.5 1.2 6.4.8 1.8 2 3.3 3.5 4.3s3.3 1.6 5.3 1.6c1.5 0 2.8-.3 4.1-.9 1.3-.6 2.4-1.3 3.3-2.2l1.3 1.6c-1.1 1.1-2.5 2-3.9 2.7-1.5.5-3.1.9-4.9.9zm25.1 0c-2.3 0-4.5-.6-6.4-1.7-1.9-1.2-3.5-2.8-4.6-5-1.2-2.2-1.7-4.8-1.7-7.7 0-3 .6-5.6 1.7-7.8 1.2-2.2 2.7-3.8 4.5-5 1.8-1.2 3.8-1.8 5.8-1.8 3.3 0 5.9 1.1 7.8 3.3 1.9 2.2 2.8 5.4 2.8 9.4v1c0 .4-.1.7-.1 1.1h-19.9c.1 2.5.6 4.6 1.5 6.3.9 1.8 2.2 3.1 3.7 4.1 1.6 1 3.3 1.4 5.2 1.4 1.5 0 2.9-.2 4.1-.6 1.3-.4 2.4-1 3.3-1.6l1 1.8c-1.1.7-2.3 1.4-3.6 1.9-1.3.6-3 .9-5.1.9zm-.7-26.9c-1.4 0-2.8.4-4.2 1.2-1.4.8-2.5 1.9-3.5 3.5s-1.6 3.5-1.8 5.9h17.6c0-3.5-.7-6.2-2.2-7.9-1.4-1.8-3.4-2.7-5.9-2.7z" style="fill:#343a40"/><path d="M418.4 69.3H456v16h-37.6v-16z" style="fill:#3bc9db"/><path d="M184 44.3h272v16H184v-16z" style="fill:#ff922b"/><path d="M185.3 151.4v-12.3h6.7v.7h-5.9v4.6h4.9v.7h-4.9v5.4h6.1v.7l-6.9.2zm7.6 0 3-4.7-2.8-4.3h.9l1.5 2.3c.2.2.3.5.5.7.2.3.3.5.5.7h.1c.2-.3.3-.5.5-.7.1-.3.3-.5.5-.7l1.4-2.3h.9l-2.8 4.3 3 4.6h-.9l-1.6-2.4c-.2-.3-.3-.6-.5-.8-.2-.3-.4-.5-.6-.8h-.1c-.2.3-.3.5-.5.8-.2.3-.3.6-.5.8l-1.5 2.4-1 .1zm11.1.1c-.9 0-1.5-.3-1.8-.7-.3-.5-.5-1.1-.5-1.9v-5.7h-1.4v-.6l1.4-.1.1-3h.7v3h2.6v.7h-2.6v5.8c0 .6.1 1 .3 1.4.2.4.6.5 1.2.5.2 0 .4 0 .5-.1.2 0 .4-.1.6-.2l.3.6c-.4.2-.9.3-1.4.3zm3.4-.1v-8.9h.7l.1 1.7h.1c.3-.6.6-1 1.1-1.4.4-.4.9-.5 1.5-.5h.5c.1 0 .3.1.4.2l-.2.7c-.1 0-.2-.1-.4-.1h-.4c-.4 0-.8.2-1.3.5-.4.3-.8.9-1.2 1.8v6.1l-.9-.1zm9.1.2c-.8 0-1.5-.2-2.1-.6s-1.1-.9-1.5-1.6c-.4-.7-.6-1.5-.6-2.5s.2-1.8.6-2.5c.4-.7.9-1.2 1.5-1.6.6-.4 1.2-.6 1.9-.6 1.1 0 1.9.4 2.5 1.1.6.7.9 1.7.9 3.1v.3c0 .1 0 .2-.1.4h-6.4c0 .8.2 1.5.5 2.1.3.6.7 1 1.2 1.3.5.3 1.1.5 1.7.5.5 0 .9-.1 1.3-.2s.8-.3 1.1-.5l.3.6c-.4.2-.7.4-1.2.6-.4 0-1 .1-1.6.1zm-.2-8.7c-.5 0-.9.1-1.4.4-.4.3-.8.6-1.1 1.1-.3.5-.5 1.1-.6 1.9h5.7c0-1.1-.2-2-.7-2.6-.5-.5-1.1-.8-1.9-.8zm5.8 8.5v-8.9h.7l.1 1.4h.1c.4-.5.8-.8 1.3-1.1.5-.3 1-.5 1.5-.5.7 0 1.3.2 1.7.5.4.3.7.8.8 1.3.5-.6 1-1 1.5-1.3.5-.3 1-.5 1.5-.5 1.8 0 2.7 1.1 2.7 3.4v5.7h-.8v-5.6c0-1.9-.7-2.8-2-2.8-.8 0-1.7.6-2.7 1.7v6.7h-.8v-5.6c0-1-.2-1.7-.5-2.1s-.8-.7-1.5-.7c-.8 0-1.7.6-2.7 1.7v6.7h-.9zm18.5.2c-.8 0-1.5-.2-2.1-.6-.6-.4-1.1-.9-1.5-1.6-.4-.7-.6-1.5-.6-2.5s.2-1.8.6-2.5c.4-.7.9-1.2 1.5-1.6.6-.4 1.2-.6 1.9-.6 1.1 0 1.9.4 2.5 1.1.6.7.9 1.7.9 3.1v.3c0 .1 0 .2-.1.4h-6.4c0 .8.2 1.5.5 2.1.3.6.7 1 1.2 1.3.5.3 1.1.5 1.7.5.5 0 .9-.1 1.3-.2s.8-.3 1.1-.5l.3.6c-.4.2-.7.4-1.2.6-.4 0-.9.1-1.6.1zm-.2-8.7c-.5 0-.9.1-1.4.4-.4.3-.8.6-1.1 1.1-.3.5-.5 1.1-.6 1.9h5.7c0-1.1-.2-2-.7-2.6-.5-.5-1.1-.8-1.9-.8zm6.9 8.6c-.4 0-.6-.1-.8-.3-.2-.2-.3-.6-.3-1.1V138h.8v12.2c0 .2 0 .4.1.5.1.1.2.1.3.1H247.7l.2.7h-.6zm3 4c-.4 0-.7-.1-.9-.2l.2-.7c.2.1.5.1.7.1.6 0 1-.2 1.4-.7s.7-1 .9-1.7l.2-.8-3.7-9.1h.9l2.2 5.6c.1.4.3.8.5 1.2.2.5.3.9.5 1.3h.1c.1-.4.3-.8.4-1.3.1-.5.3-.9.4-1.2l1.9-5.6h.8l-3.5 10.1c-.2.5-.4 1-.6 1.4-.3.5-.6.8-1 1.1-.4.3-.9.5-1.4.5zm12.3-4.1v-8.2h-1.3v-.6l1.3-.1v-2c0-.9.2-1.6.6-2 .4-.5.9-.7 1.6-.7.5 0 .9.1 1.3.3l-.2.6c-.4-.2-.7-.2-1.1-.2-.5 0-.8.2-1.1.5s-.3.9-.3 1.5v1.9h2.1v.7h-2.1v8.2l-.8.1zm6.4.2c-.7 0-1.3-.2-1.8-.6-.5-.4-.8-1-.8-1.9 0-1 .5-1.8 1.4-2.3.9-.5 2.4-.9 4.4-1.1 0-.5 0-.9-.2-1.3-.1-.4-.3-.8-.6-1.1-.3-.3-.8-.4-1.4-.4-.6 0-1.1.1-1.6.3-.5.2-.9.5-1.2.7l-.4-.6c.3-.3.8-.5 1.4-.8.6-.3 1.2-.4 2-.4.7 0 1.3.2 1.7.5s.7.7.9 1.2c.2.5.3 1.1.3 1.7v5.7h-.7l-.1-1.2h-.1c-.5.4-1 .7-1.5 1-.6.5-1.2.6-1.7.6zm.1-.7c.5 0 1-.1 1.5-.4s1-.6 1.6-1.1v-3c-1.2.2-2.2.3-2.9.6s-1.2.5-1.6.9c-.3.3-.5.8-.5 1.2 0 .7.2 1.1.6 1.4.4.3.8.4 1.3.4zm9.2.7c-.7 0-1.3-.1-1.9-.3-.6-.2-1-.5-1.4-.9l.5-.5c.4.3.8.6 1.2.8.4.2 1 .3 1.7.3s1.2-.2 1.6-.5c.4-.4.5-.8.5-1.2 0-.4-.1-.7-.3-.9s-.5-.5-.8-.6-.7-.3-1-.4c-.5-.2-.9-.3-1.3-.6-.4-.2-.8-.5-1.1-.8-.3-.3-.4-.7-.4-1.2 0-.7.2-1.2.7-1.7.5-.5 1.2-.7 2.1-.7.9 0 1.8.3 2.6.9l-.5.5c-.3-.2-.6-.4-1-.5-.3-.1-.7-.2-1.2-.2-.7 0-1.2.2-1.5.5-.3.3-.5.7-.5 1.1 0 .3.1.6.3.8.2.2.4.4.8.6.3.2.7.3 1 .4.5.2.9.4 1.4.6.5.2.8.5 1.1.8.3.3.4.8.4 1.4 0 .5-.1.9-.4 1.2-.2.4-.6.7-1 .9-.4.1-.9.2-1.6.2zm7.5-.1c-.9 0-1.5-.3-1.8-.7-.3-.5-.5-1.1-.5-1.9v-5.7h-1.4v-.6l1.4-.1.1-3h.7v3h2.6v.7h-2.6v5.8c0 .6.1 1 .3 1.4.2.4.6.5 1.2.5.2 0 .4 0 .5-.1.2 0 .4-.1.6-.2l.3.6c-.5.2-1 .3-1.4.3zm9.5 0c-.9 0-1.5-.3-1.8-.7-.3-.5-.5-1.1-.5-1.9v-5.7h-1.4v-.6l1.4-.1.1-3h.7v3h2.6v.7h-2.6v5.8c0 .6.1 1 .3 1.4.2.4.6.5 1.2.5.2 0 .4 0 .5-.1.2 0 .4-.1.6-.2l.3.6c-.4.2-.9.3-1.4.3zm3.4-.1v-8.9h.7l.1 1.7h.1c.3-.6.6-1 1.1-1.4.4-.4.9-.5 1.5-.5h.5c.1 0 .3.1.4.2l-.2.7c-.1 0-.2-.1-.4-.1h-.4c-.4 0-.8.2-1.3.5-.4.3-.8.9-1.2 1.8v6.1l-.9-.1zm7.5.2c-.7 0-1.3-.2-1.8-.6-.5-.4-.8-1-.8-1.9 0-1 .5-1.8 1.4-2.3.9-.5 2.4-.9 4.4-1.1 0-.5 0-.9-.2-1.3-.1-.4-.3-.8-.6-1.1-.3-.3-.8-.4-1.4-.4-.6 0-1.1.1-1.6.3-.5.2-.9.5-1.2.7l-.4-.6c.3-.3.8-.5 1.4-.8.6-.3 1.2-.4 2-.4.7 0 1.3.2 1.7.5.4.3.7.7.9 1.2.2.5.3 1.1.3 1.7v5.7h-.7l-.1-1.2h-.1c-.5.4-1 .7-1.5 1-.6.5-1.2.6-1.7.6zm.1-.7c.5 0 1-.1 1.5-.4.5-.2 1-.6 1.6-1.1v-3c-1.2.2-2.2.3-2.9.6s-1.2.5-1.6.9c-.3.3-.5.8-.5 1.2 0 .7.2 1.1.6 1.4.4.3.8.4 1.3.4zm10.4.7c-.8 0-1.5-.2-2.1-.6-.6-.4-1.1-.9-1.5-1.6-.4-.7-.5-1.5-.5-2.5s.2-1.9.6-2.6c.4-.7.9-1.2 1.5-1.6s1.3-.6 2-.6c.6 0 1.1.1 1.6.3.4.2.8.5 1.1.8l-.5.5c-.3-.3-.6-.5-.9-.6s-.8-.2-1.2-.2c-.6 0-1.2.2-1.7.5s-.9.8-1.2 1.4c-.3.6-.4 1.3-.4 2.1s.1 1.5.4 2.1c.3.6.7 1.1 1.1 1.4s1.1.5 1.7.5c.5 0 .9-.1 1.3-.3.4-.2.8-.4 1.1-.7l.4.5c-.4.4-.8.7-1.3.9-.4.2-1 .3-1.5.3zm5.4-11.3c-.2 0-.4-.1-.5-.2-.1-.1-.2-.3-.2-.6 0-.2.1-.4.2-.5.1-.1.3-.2.5-.2s.4.1.5.2c.1.1.2.3.2.5s-.1.4-.2.6c-.1.1-.3.2-.5.2zm-.4 11.1v-8.9h.8v8.9h-.8zm4.3 0v-8.9h.7l.1 1.4h.1c.5-.5.9-.8 1.4-1.1.5-.3 1-.5 1.7-.5.9 0 1.6.3 2 .9.4.6.7 1.4.7 2.6v5.7h-.8v-5.6c0-1-.2-1.7-.5-2.1-.3-.5-.8-.7-1.6-.7-.5 0-1 .1-1.5.4-.4.3-.9.7-1.5 1.3v6.7l-.8-.1zm12.8 4.3c-1.1 0-2-.2-2.7-.7s-1-1.1-1-1.8c0-.4.1-.8.4-1.2.2-.4.6-.7 1-1-.2-.1-.4-.3-.6-.6-.2-.2-.2-.5-.2-.9s.1-.7.3-1c.2-.3.4-.5.6-.6v-.1c-.3-.3-.5-.6-.8-1-.2-.4-.4-.9-.4-1.4 0-.6.1-1.2.4-1.6s.7-.8 1.1-1.1c.5-.3 1-.4 1.6-.4.3 0 .5 0 .7.1.2 0 .4.1.5.2h3v.7h-2.1v.1c.3.2.5.5.7.9.2.4.3.8.3 1.3 0 .6-.1 1.2-.4 1.6-.3.5-.7.8-1.1 1.1-.5.3-1 .4-1.6.4-.3 0-.5 0-.8-.1-.3-.1-.5-.2-.7-.3-.2.2-.4.3-.5.5s-.2.5-.2.7c0 .3.1.6.4.8.2.2.7.3 1.4.3h1.9c1 0 1.8.2 2.2.5s.7.9.7 1.6c0 .5-.2 1-.5 1.5-.4.5-.8.8-1.5 1.1-.5.3-1.2.4-2.1.4zm.1-.7c.7 0 1.3-.1 1.7-.3.5-.2.9-.5 1.1-.9.3-.3.4-.7.4-1.1 0-.5-.2-.9-.5-1.1-.4-.2-.9-.3-1.5-.3h-2.4c-.2 0-.4-.1-.7-.1-.4.3-.7.6-.9.9-.2.3-.3.7-.3 1 0 .6.3 1 .8 1.4.6.4 1.4.5 2.3.5zm-.2-7.1c.4 0 .8-.1 1.1-.3.4-.2.6-.5.9-.9.2-.4.3-.8.3-1.3 0-.8-.2-1.4-.7-1.8-.5-.4-1-.7-1.6-.7s-1.2.2-1.6.7c-.5.4-.7 1.1-.7 1.8 0 .5.1.9.3 1.3.2.4.5.7.9.9.3.2.7.3 1.1.3zm11.1 3.6c-.4 0-.6-.1-.8-.3-.2-.2-.3-.6-.3-1.1V138h.8v12.2c0 .2 0 .4.1.5.1.1.2.1.3.1H350.2l.2.7h-.6zm3.7-11.2c-.2 0-.4-.1-.5-.2-.1-.1-.2-.3-.2-.6 0-.2.1-.4.2-.5.1-.1.3-.2.5-.2s.4.1.5.2c.1.1.2.3.2.5s-.1.4-.2.6c-.1.1-.3.2-.5.2zm-.4 11.1v-8.9h.8v8.9h-.8zm7.8.2c-.4 0-.9-.1-1.3-.3-.5-.2-.9-.5-1.3-.8l-.1.9h-.7V138h.8v5.7c.5-.4 1-.7 1.5-1 .5-.3 1.1-.4 1.6-.4 1.2 0 2.1.4 2.7 1.2.6.8.9 1.9.9 3.3 0 1-.2 1.9-.6 2.6-.4.7-.9 1.3-1.4 1.7-.8.3-1.4.5-2.1.5zm-.1-.7c.6 0 1.2-.2 1.6-.5.5-.4.8-.8 1.1-1.4.3-.6.4-1.3.4-2.1 0-.7-.1-1.4-.3-2-.2-.6-.5-1-.9-1.4-.4-.3-1-.5-1.7-.5-.5 0-.9.1-1.4.4-.5.3-1 .6-1.5 1.1v5.3c.5.4 1 .7 1.4.9.6.1 1 .2 1.3.2zm6.7.5v-8.9h.7l.1 1.7h.1c.3-.6.6-1 1.1-1.4.4-.4.9-.5 1.5-.5h.5c.1 0 .3.1.4.2l-.2.7c-.1 0-.2-.1-.4-.1h-.4c-.4 0-.8.2-1.3.5-.4.3-.8.9-1.2 1.8v6.1l-.9-.1zm7.5.2c-.7 0-1.3-.2-1.8-.6-.5-.4-.8-1-.8-1.9 0-1 .5-1.8 1.4-2.3.9-.5 2.4-.9 4.4-1.1 0-.5 0-.9-.2-1.3-.1-.4-.3-.8-.6-1.1-.3-.3-.8-.4-1.4-.4-.6 0-1.1.1-1.6.3-.5.2-.9.5-1.2.7l-.4-.6c.3-.3.8-.5 1.4-.8.6-.3 1.2-.4 2-.4.7 0 1.3.2 1.7.5s.7.7.9 1.2c.2.5.3 1.1.3 1.7v5.7h-.7l-.1-1.2h-.1c-.5.4-1 .7-1.5 1-.6.5-1.2.6-1.7.6zm.1-.7c.5 0 1-.1 1.5-.4s1-.6 1.6-1.1v-3c-1.2.2-2.2.3-2.9.6s-1.2.5-1.6.9c-.3.3-.5.8-.5 1.2 0 .7.2 1.1.6 1.4.3.3.8.4 1.3.4zm7 .5v-8.9h.7l.1 1.7h.1c.3-.6.6-1 1.1-1.4.4-.4.9-.5 1.5-.5h.5c.1 0 .3.1.4.2l-.2.7c-.1 0-.2-.1-.4-.1h-.4c-.4 0-.8.2-1.3.5-.4.3-.8.9-1.2 1.8v6.1l-.9-.1zm6.3 4.1c-.4 0-.7-.1-.9-.2l.2-.7c.2.1.5.1.7.1.6 0 1-.2 1.4-.7.4-.5.7-1 .9-1.7l.2-.8-3.7-9.1h.9l2.2 5.6c.1.4.3.8.5 1.2.2.5.3.9.5 1.3h.1c.1-.4.3-.8.4-1.3.1-.5.3-.9.4-1.2l1.9-5.6h.8l-3.5 10.1c-.2.5-.4 1-.6 1.4-.3.5-.6.8-1 1.1-.4.3-.9.5-1.4.5zm12.3-4.1v-8.2h-1.3v-.6l1.3-.1v-2c0-.9.2-1.6.6-2 .4-.5.9-.7 1.6-.7.5 0 .9.1 1.3.3l-.2.6c-.4-.2-.7-.2-1.1-.2-.5 0-.8.2-1.1.5-.2.4-.3.9-.3 1.5v1.9h2.1v.7h-2.1v8.2l-.8.1zm7.9.2c-.7 0-1.4-.2-2-.6-.6-.4-1.1-.9-1.5-1.6-.4-.7-.6-1.5-.6-2.5s.2-1.9.6-2.6c.4-.7.9-1.2 1.5-1.6s1.3-.6 2-.6 1.4.2 2 .6c.6.4 1.1.9 1.5 1.6s.6 1.6.6 2.6-.2 1.8-.6 2.5c-.4.7-.9 1.2-1.5 1.6-.7.4-1.3.6-2 .6zm0-.7c.6 0 1.2-.2 1.6-.5.5-.3.9-.8 1.1-1.4.3-.6.4-1.3.4-2.1s-.1-1.5-.4-2.1c-.3-.6-.7-1.1-1.1-1.4-.5-.3-1-.5-1.6-.5-.6 0-1.1.2-1.6.5s-.9.8-1.1 1.4c-.3.6-.4 1.3-.4 2.1s.1 1.5.4 2.1c.3.6.7 1.1 1.1 1.4.4.3 1 .5 1.6.5zm6.7.5v-8.9h.7l.1 1.7h.1c.3-.6.6-1 1.1-1.4.4-.4.9-.5 1.5-.5h.5c.1 0 .3.1.4.2l-.2.7c-.1 0-.2-.1-.4-.1h-.4c-.4 0-.8.2-1.3.5-.4.3-.8.9-1.2 1.8v6.1l-.9-.1zm9.7 0v-12.3h3.5c1.2 0 2.2.3 2.9.7s1.1 1.3 1.1 2.5c0 1-.3 1.8-.9 2.3-.6.6-1.3.9-2.3 1l3.4 5.7h-1l-3.3-5.6h-2.6v5.6h-.8v.1zm.8-6.4h2.4c1.1 0 1.9-.2 2.5-.7.6-.4.9-1.1.9-2 0-.9-.3-1.6-.9-2-.6-.4-1.4-.6-2.5-.6h-2.4v5.3zm11.8 6.6c-.9 0-1.6-.3-2-.9-.4-.6-.7-1.4-.7-2.6v-5.7h.8v5.6c0 .9.2 1.6.5 2.1s.8.7 1.6.7c.5 0 1-.2 1.5-.4.4-.3.9-.8 1.4-1.4v-6.6h.8v8.9h-.7l-.1-1.5c-.4.5-.9.9-1.4 1.2-.5.5-1.1.6-1.7.6zm9.4 0c-.7 0-1.3-.1-1.9-.3-.6-.2-1-.5-1.4-.9l.5-.5c.4.3.8.6 1.2.8.4.2 1 .3 1.7.3s1.2-.2 1.6-.5c.4-.4.5-.8.5-1.2 0-.4-.1-.7-.3-.9-.2-.3-.5-.5-.8-.6-.3-.2-.7-.3-1-.4-.5-.2-.9-.3-1.3-.6-.4-.2-.8-.5-1.1-.8-.3-.3-.4-.7-.4-1.2 0-.7.2-1.2.7-1.7.5-.5 1.2-.7 2.1-.7.9 0 1.8.3 2.6.9l-.5.5c-.3-.2-.6-.4-1-.5s-.7-.2-1.2-.2c-.7 0-1.2.2-1.5.5-.3.3-.5.7-.5 1.1 0 .3.1.6.3.8s.4.4.8.6c.3.2.7.3 1 .4.5.2.9.4 1.4.6.5.2.8.5 1.1.8.3.3.4.8.4 1.4 0 .5-.1.9-.4 1.2-.2.4-.6.7-1 .9-.4.1-.9.2-1.6.2zm7.5-.1c-.9 0-1.5-.3-1.8-.7-.3-.5-.5-1.1-.5-1.9v-5.7h-1.4v-.6l1.4-.1.1-3h.7v3h2.6v.7H453v5.8c0 .6.1 1 .3 1.4.2.4.6.5 1.2.5.2 0 .4 0 .5-.1.2 0 .4-.1.6-.2l.3.6c-.4.2-.9.3-1.4.3z" style="fill:#495057"/></svg>